/* XPM */
static char *Guard[] = {
/* columns rows colors chars-per-pixel */
"64 128 14 1 ",
"  c None",
". c black",
"X c gray6",
"o c #51310F",
"O c #422F1B",
"+ c #423C1E",
"@ c #61331D",
"# c #593829",
"$ c #524B24",
"% c #504E51",
"& c #6D6770",
"* c #D9A066",
"= c #847E87",
"- c white",
/* pixels */
"                                                                ",
"                                                                ",
"                                                                ",
"                                                                ",
"                                                                ",
"                                                                ",
"                                                                ",
"                                                                ",
"                                                                ",
"                                                                ",
"                                                                ",
"                                                                ",
"                                                                ",
"                                                                ",
"                                                                ",
"                                                                ",
"                                                                ",
"                                                                ",
"                                                                ",
"                                                                ",
"                                                                ",
"                                                                ",
"                  XXXXXXXXXXXXXXXXXXXXXXXXXXXX                  ",
"                  XXXXXXXXXXXXXXXXXXXXXXXXXXXX                  ",
"                  XXXXXXXXXXXXXXXXXXXXXXXXXXXX                  ",
"                  XXXXXXXXXXXXXXXXXXXXXXXXXXXX                  ",
"                  XXXXXXXXXXXXXXXXXXXXXXXXXXXX                  ",
"                  XXXXXXXXXXXXXXXXXXXXXXXXXXXX                  ",
"                  XXXXXXXXXXXXXXXXXXXXXXXXXXXX                  ",
"                  XXXXXXXXXXXXXXXXXXXXXXXXXXXX                  ",
"                  XXXXXXXXXX********XXXX******                  ",
"                  XXXXXXXXXX********XXXX******                  ",
"                  XXXXXXXXXX****--OOXXXX**--OO                  ",
"                  XXXXXXXXXX****--OOXXXX**--OO                  ",
"                  XXXXXXXXXX********XXXX******                  ",
"                  XXXXXXXXXX********XXXX******                  ",
"                  XXXXXXXXXXXXXXXXXXXXXXXXXXXX                  ",
"                  XXXXXXXXXXXXXXXXXXXXXXXXXXXX                  ",
"                  XXXXXXXXXXXXXXXXXXXXXXXXXXXX                  ",
"                  XXXXXXXXXXXXXXXXXXXXXXXXXXXX                  ",
"                  XXXXXXXXXXXX************XXXX                  ",
"                  XXXXXXXXXXXX************XXXX                  ",
"                  XXXXXXXXXXXX****......**XXXX                  ",
"                  XXXXXXXXXXXX****......**XXXX                  ",
"                  XXXXXXXXXXXX************XXXX                  ",
"                  XXXXXXXXXXXX************XXXX                  ",
"                  XXXXXXXXXXXXXXXXXXXXXXXXXXXX                  ",
"                  XXXXXXXXXXXXXXXXXXXXXXXXXXXX                  ",
"                  XXXXXXXXXXXXXXXXXXXXXXXXXXXX                  ",
"                  XXXXXXXXXXXXXXXXXXXXXXXXXXXX                  ",
"                          ************                          ",
"                          ************                          ",
"            ++++++$$$$$$$$$$$$$$$$$$$$$$$$$$$$$$                ",
"            ++++++$$$$$$$$$$$$$$$$$$$$$$$$$$$$$$                ",
"            ++++++$$$$$$$$$$$$$$$$$$$$$$$$$$$$$$                ",
"            ++++++$$$$$$$$$$$$$$$$$$$$$$$$$$$$$$                ",
"            ++++$$$$$$$$$$$$$$$$$$$$$$$$$$$$$$$$                ",
"            ++++$$$$$$$$$$$$$$$$$$$$$$$$$$$$$$$$                ",
"            $$$$$$$$$$$$$$$$$$$$$$$$$$$$$$$$$$$$                ",
"            $$$$$$$$$$$$$$$$$$$$$$$$$$$$$$$$$$$$                ",
"            $$$$$$$$$$$$$$%%%%%%%%%%%%$$$$$$$$$$                ",
"            $$$$$$$$$$$$$$%%%%%%%%%%%%$$$$$$$$$$                ",
"        @@@@@@@@@@@@@@##==%%====&&%%&&==########==      ==      ",
"        @@@@@@@@@@@@@@##==%%====&&%%&&==########==      ==      ",
"        @@@@@@@@@@@@@@##==&&&&&&&&&&%%==$$$$##++  ====  ==      ",
"        @@@@@@@@@@@@@@##==&&&&&&&&&&%%==$$$$##++  ====  ==      ",
"        ##@@@@@@@@$$$$##%%%%%%%%==%%%%&&########============    ",
"        ##@@@@@@@@$$$$##%%%%%%%%==%%%%&&########============    ",
"        ######$$$$$$$$$$%%%%%%$$$$&&&&$$$$++++++                ",
"        ######$$$$$$$$$$%%%%%%$$$$&&&&$$$$++++++                ",
"        ##  $$$$$$$$$$$$##%%$$$$$$&&&&$$$$++++++                ",
"        ##  $$$$$$$$$$$$##%%$$$$$$&&&&$$$$++++++                ",
"            $$$$$$$$$$######$$$$$$&&&&&&$$$$++++                ",
"            $$$$$$$$$$######$$$$$$&&&&&&$$$$++++                ",
"            $$++++++########$$$$$$$$&&&&$$$$$$$$                ",
"            $$++++++########$$$$$$$$&&&&$$$$$$$$                ",
"            ++++++++######$$$$$$$$$$&&&&&&$$$$$$                ",
"            ++++++++######$$$$$$$$$$&&&&&&$$$$$$                ",
"            ++++++++####$$$$$$$$$$$$$$&&&&$$$$$$                ",
"            ++++++++####$$$$$$$$$$$$$$&&&&$$$$$$                ",
"            ++++++++++$$$$$$$$$$$$$$$$$$$$$$$$$$                ",
"            ++++++++++$$$$$$$$$$$$$$$$$$$$$$$$$$                ",
"            OOOOOOOOOOOOOOOOOOooOOOOOOOOOOOOOOOO                ",
"            OOOOOOOOOOOOOOOOOOooOOOOOOOOOOOOOOOO                ",
"            OOOOOOOOOOOOOOOOooooOOOOOOOOOOOOOOOO                ",
"            OOOOOOOOOOOOOOOOooooOOOOOOOOOOOOOOOO                ",
"            ++++$$$$$$$$$$$$$$$$$$$$$$$$$$$$$$++                ",
"            ++++$$$$$$$$$$$$$$$$$$$$$$$$$$$$$$++                ",
"            $$++++$$$$$$$$$$$$$$$$$$$$$$$$++++++                ",
"            $$++++$$$$$$$$$$$$$$$$$$$$$$$$++++++                ",
"            $$$$++++++$$$$$$$$$$$$$$$$$$++++++$$                ",
"            $$$$++++++$$$$$$$$$$$$$$$$$$++++++$$                ",
"            $$$$$$$$++++++$$$$$$$$$$++++++++$$$$                ",
"            $$$$$$$$++++++$$$$$$$$$$++++++++$$$$                ",
"            $$$$$$$$$$$$++++$$$$$$++++$$$$$$$$$$                ",
"            $$$$$$$$$$$$++++$$$$$$++++$$$$$$$$$$                ",
"            $$$$$$$$$$$$$$++++++++++$$$$$$$$$$$$                ",
"            $$$$$$$$$$$$$$++++++++++$$$$$$$$$$$$                ",
"            $$$$$$$$$$$$$$        $$$$$$$$$$$$$$                ",
"            $$$$$$$$$$$$$$        $$$$$$$$$$$$$$                ",
"            $$$$$$$$$$$$$$        $$$$$$$$$$$$$$                ",
"            $$$$$$$$$$$$$$        $$$$$$$$$$$$$$                ",
"            $$$$$$$$$$$$$$        $$$$$$++++++$$                ",
"            $$$$$$$$$$$$$$        $$$$$$++++++$$                ",
"            ++++++++++$$$$        $$$$++++++++++                ",
"            ++++++++++$$$$        $$$$++++++++++                ",
"            ++++++++++++$$        $$$$++++++++++                ",
"            ++++++++++++$$        $$$$++++++++++                ",
"            ++++++++++++$$        $$$$++++++++++                ",
"            ++++++++++++$$        $$$$++++++++++                ",
"            ++++++++++++$$        $$$$++++++++++                ",
"            ++++++++++++$$        $$$$++++++++++                ",
"            ++++++++++++$$        $$$$$$++++++$$                ",
"            ++++++++++++$$        $$$$$$++++++$$                ",
"            $$$$++++++$$$$        $$$$$$$$$$$$$$                ",
"            $$$$++++++$$$$        $$$$$$$$$$$$$$                ",
"            $$$$$$$$$$$$$$        $$$$$$$$$$$$$$                ",
"            $$$$$$$$$$$$$$        $$$$$$$$$$$$$$                ",
"            $$$$$$$$$$$$$$        $$$$$$$$$$$$$$                ",
"            $$$$$$$$$$$$$$        $$$$$$$$$$$$$$                ",
"            ..................    ..................            ",
"            ..................    ..................            ",
"            ..................    ..................            ",
"            ..................    ..................            ",
"            ..................    ..................            ",
"            ..................    ..................            ",
"            ..................    ..................            ",
"            ..................    ..................            "
};
