/* XPM */
static char *Solid_Snake[] = {
/* columns rows colors chars-per-pixel */
"64 128 7 1 ",
"  c None",
". c black",
"X c gray17",
"o c #696A6A",
"O c #804400",
"+ c #C1BABA",
"@ c #EEC39A",
/* pixels */
"                                                                ",
"                                                                ",
"                                                                ",
"                                                                ",
"                                                                ",
"                                                                ",
"                                                                ",
"                                                                ",
"                                                                ",
"                                                                ",
"                                                                ",
"                                                                ",
"                                                                ",
"                                                                ",
"                                                                ",
"                                                                ",
"                                                                ",
"                                                                ",
"                                                                ",
"                                                                ",
"                    OOOOOOOOOOOOOOOOOOOOOOOOOOOO                ",
"                    OOOOOOOOOOOOOOOOOOOOOOOOOOOO                ",
"                  OOOOOOOOOOOOOOOOOOOOOOOOOOOOOOOO              ",
"                  OOOOOOOOOOOOOOOOOOOOOOOOOOOOOOOO              ",
"                OOOOOOOOOOOOOOOOOOOOOOOOOOOOOOOOOO              ",
"                OOOOOOOOOOOOOOOOOOOOOOOOOOOOOOOOOO              ",
"              ooooooooooooooooooooooooooooooooOO                ",
"              ooooooooooooooooooooooooooooooooOO                ",
"            oooooooooooooooooooooooooooooooooooo                ",
"            oooooooooooooooooooooooooooooooooooo                ",
"          oooooooooooooooooooooooooooooooooooooo                ",
"          oooooooooooooooooooooooooooooooooooooo                ",
"          ooooooOOOO@@OO@@@@@@@@@@@@@@@@@@@@@@                  ",
"          ooooooOOOO@@OO@@@@@@@@@@@@@@@@@@@@@@                  ",
"        oooooo  OOOO@@OO@@@@@@@@@@@@@@@@@@@@@@                  ",
"        oooooo  OOOO@@OO@@@@@@@@@@@@@@@@@@@@@@                  ",
"        oooooo  OO@@@@OO@@@@@@@@@@@@@@@@@@@@@@                  ",
"        oooooo  OO@@@@OO@@@@@@@@@@@@@@@@@@@@@@                  ",
"        ooooooOOOO@@@@OO@@@@@@@@@@@@@@@@@@@@@@                  ",
"        ooooooOOOO@@@@OO@@@@@@@@@@@@@@@@@@@@@@                  ",
"        oooo  OOOO@@@@OOOOOO@@@@@@@@@@@@@@@@@@                  ",
"        oooo  OOOO@@@@OOOOOO@@@@@@@@@@@@@@@@@@                  ",
"      oooooooo    @@@@@@@@OOOOOOOOOOOOOOOOOOOO                  ",
"      oooooooo    @@@@@@@@OOOOOOOOOOOOOOOOOOOO                  ",
"      oooooooo    @@@@@@@@@@@@OOOO@@@@@@@@@@OO                  ",
"      oooooooo    @@@@@@@@@@@@OOOO@@@@@@@@@@OO                  ",
"    oooo    oo    @@@@@@@@@@@@@@OO@@@@OO@@@@OO                  ",
"    oooo    oo    @@@@@@@@@@@@@@OO@@@@OO@@@@OO                  ",
"                  @@@@@@@@@@@@@@OOOOOOOOOOOOOO                  ",
"                  @@@@@@@@@@@@@@OOOOOOOOOOOOOO                  ",
"                          @@@@@@@@@@@@                          ",
"                          @@@@@@@@@@@@                          ",
"            ooooooooooXXXXXXXXXXXXXXXXXXXXXXoooo                ",
"            ooooooooooXXXXXXXXXXXXXXXXXXXXXXoooo                ",
"            ooooooooooXXooooooooooooooooooXXoooo                ",
"            ooooooooooXXooooooooooooooooooXXoooo                ",
"            ooooooooooXXooooooooooooooooooXXoooo                ",
"            ooooooooooXXooooooooooooooooooXXoooo                ",
"            ooooooooooXXooooooooooooooooooXXoooo                ",
"            ooooooooooXXooooooooooooooooooXXoooo                ",
"            ooooooooooXXooooooooooooooooooXXoooo                ",
"            ooooooooooXXooooooooooooooooooXXoooo                ",
"            ooooooooooXXooooooooooooooooooXXoooo                ",
"            ooooooooooXXooooooooooooooooooXXoooo                ",
"            ooooooooXXXXooooooooooooooooooXXoooo                ",
"            ooooooooXXXXooooooooooooooooooXXoooo                ",
"            ooooooooXXooooooooooooooooooooXXXXoo                ",
"            ooooooooXXooooooooooooooooooooXXXXoo                ",
"            ooooooXXXXooooooooooooooooooooXXXXXX                ",
"            ooooooXXXXooooooooooooooooooooXXXXXX                ",
"            ooooXXXXXXooooooooooooooooooooXXooXX                ",
"            ooooXXXXXXooooooooooooooooooooXXooXX                ",
"            XXXXXXooXXooooooooooooooooooooXXoooo                ",
"            XXXXXXooXXooooooooooooooooooooXXoooo                ",
"            ooooooooXXooooooooooooooooooooXXoooo                ",
"            ooooooooXXooooooooooooooooooooXXoooo                ",
"            ooooooooXXooooooooooooooooooooXXoooo                ",
"            ooooooooXXooooooooooooooooooooXXoooo                ",
"            ooooooooXXooooooooooooooooooooXXoooo                ",
"            ooooooooXXooooooooooooooooooooXXoooo                ",
"            ooooooooXXooooooooooooooooooooXXoooo                ",
"            ooooooooXXooooooooooooooooooooXXoooo                ",
"            ooooooooXXooooooooooooooooooooXXoooo                ",
"            ooooooooXXooooooooooooooooooooXXoooo                ",
"            oooooo++XXXXXX++oooooooo++XXXXXX++oo                ",
"            oooooo++XXXXXX++oooooooo++XXXXXX++oo                ",
"            ooooooXX++++++XXXXXXXXXXXX++++++XXoo                ",
"            ooooooXX++++++XXXXXXXXXXXX++++++XXoo                ",
"            XXXXXXXXXXXXXXXXooooooooXXXXXXXXXXXX                ",
"            XXXXXXXXXXXXXXXXooooooooXXXXXXXXXXXX                ",
"          XXXXooXXXXXXooooooooooooooooooXXXXXXoo                ",
"          XXXXooXXXXXXooooooooooooooooooXXXXXXoo                ",
"        XXXXXXooooooXXXXXXooooooooooXXXXXXXXoooo                ",
"        XXXXXXooooooXXXXXXooooooooooXXXXXXXXoooo                ",
"        XXXXXXooooooooooXXXXooooooXXXXoooooooooo                ",
"        XXXXXXooooooooooXXXXooooooXXXXoooooooooo                ",
"        XXXXXXooooooooooooXXXXXXXXXXoooooooooooo                ",
"        XXXXXXooooooooooooXXXXXXXXXXoooooooooooo                ",
"        XXXXXXoooooooooooo        oooooooooooooo                ",
"        XXXXXXoooooooooooo        oooooooooooooo                ",
"        XXXXXXoooooooooooo        oooooooooooooo                ",
"        XXXXXXoooooooooooo        oooooooooooooo                ",
"        XXXXXXoooooooooooo        oooooooooooooo                ",
"        XXXXXXoooooooooooo        oooooooooooooo                ",
"          XXXXXXXXXXXXXXXX        XXXXXXXXXXXXXX                ",
"          XXXXXXXXXXXXXXXX        XXXXXXXXXXXXXX                ",
"            oooooooooooooo        oooooooooooooo                ",
"            oooooooooooooo        oooooooooooooo                ",
"            oooooooooooooo        oooooooooooooo                ",
"            oooooooooooooo        oooooooooooooo                ",
"            oooooooooooooo        oooooooooooooo                ",
"            oooooooooooooo        oooooooooooooo                ",
"            oooooooooooooo        oooooooooooooo                ",
"            oooooooooooooo        oooooooooooooo                ",
"            oooooooooooooo        oooooooooooooo                ",
"            oooooooooooooo        oooooooooooooo                ",
"            oooooooooooooo        oooooooooooooo                ",
"            oooooooooooooo        oooooooooooooo                ",
"            oooooooooooooo        oooooooooooooo                ",
"            oooooooooooooo        oooooooooooooo                ",
"            ..................    ..................            ",
"            ..................    ..................            ",
"            ..................    ..................            ",
"            ..................    ..................            ",
"            ..................    ..................            ",
"            ..................    ..................            ",
"            ..................    ..................            ",
"            ..................    ..................            "
};
