/* XPM */
static char *Limit_SquareB[] = {
/* columns rows colors chars-per-pixel */
"128 128 3 1 ",
"  c None",
". c black",
"X c #00FF00",
/* pixels */
"XXXXXXXXXXXXXXXXXXXXXXXXXXXXXXXXXXXXXXXXXXXXXXXXXXXXXXXXXXXXXXXXXXXXXXXXXXXXXXXXXXXXXXXXXXXXXXXXXXXXXXXXXXXXXXXXXXXXXXXXXXXXXXXX",
"XXXXXXXXXXXXXXXXXXXXXXXXXXXXXXXXXXXXXXXXXXXXXXXXXXXXXXXXXXXXXXXXXXXXXXXXXXXXXXXXXXXXXXXXXXXXXXXXXXXXXXXXXXXXXXXXXXXXXXXXXXXXXXXX",
"XXXXXXXXXXXXXXXXXXXXXXXXXXXXXXXXXXXXXXXXXXXXXXXXXXXXXXXXXXXXXXXXXXXXXXXXXXXXXXXXXXXXXXXXXXXXXXXXXXXXXXXXXXXXXXXXXXXXXXXXXXXXXXXX",
"XXXXXXXXXXXXXXXXXXXXXXXXXXXXXXXXXXXXXXXXXXXXXXXXXXXXXXXXXXXXXXXXXXXXXXXXXXXXXXXXXXXXXXXXXXXXXXXXXXXXXXXXXXXXXXXXXXXXXXXXXXXXXXXX",
"XXXX........................................................................................................................XXXX",
"XXXX........................................................................................................................XXXX",
"XXXX........................................................................................................................XXXX",
"XXXX........................................................................................................................XXXX",
"XXXX....XXXXXXXXXXXXXXXXXXXXXXXXXXXXXXXXXXXXXXXXXXXXXXXXXXXXXXXXXXXXXXXXXXXXXXXXXXXXXXXXXXXXXXXXXXXXXXXXXXXXXXXXXXXXXXXX....XXXX",
"XXXX....XXXXXXXXXXXXXXXXXXXXXXXXXXXXXXXXXXXXXXXXXXXXXXXXXXXXXXXXXXXXXXXXXXXXXXXXXXXXXXXXXXXXXXXXXXXXXXXXXXXXXXXXXXXXXXXX....XXXX",
"XXXX....XXXXXXXXXXXXXXXXXXXXXXXXXXXXXXXXXXXXXXXXXXXXXXXXXXXXXXXXXXXXXXXXXXXXXXXXXXXXXXXXXXXXXXXXXXXXXXXXXXXXXXXXXXXXXXXX....XXXX",
"XXXX....XXXXXXXXXXXXXXXXXXXXXXXXXXXXXXXXXXXXXXXXXXXXXXXXXXXXXXXXXXXXXXXXXXXXXXXXXXXXXXXXXXXXXXXXXXXXXXXXXXXXXXXXXXXXXXXX....XXXX",
"XXXX....XXXX                                                                                                        XXXX....XXXX",
"XXXX....XXXX                                                                                                        XXXX....XXXX",
"XXXX....XXXX                                                                                                        XXXX....XXXX",
"XXXX....XXXX                                                                                                        XXXX....XXXX",
"XXXX....XXXX                                                                                                        XXXX....XXXX",
"XXXX....XXXX                                                                                                        XXXX....XXXX",
"XXXX....XXXX                                                                                                        XXXX....XXXX",
"XXXX....XXXX                                                                                                        XXXX....XXXX",
"XXXX....XXXX                                                                                                        XXXX....XXXX",
"XXXX....XXXX                                                                                                        XXXX....XXXX",
"XXXX....XXXX                                                                                                        XXXX....XXXX",
"XXXX....XXXX                                                                                                        XXXX....XXXX",
"XXXX....XXXX                                                                                                        XXXX....XXXX",
"XXXX....XXXX                                                                                                        XXXX....XXXX",
"XXXX....XXXX                                                                                                        XXXX....XXXX",
"XXXX....XXXX                                                                                                        XXXX....XXXX",
"XXXX....XXXX                                                                                                        XXXX....XXXX",
"XXXX....XXXX                                                                                                        XXXX....XXXX",
"XXXX....XXXX                                                                                                        XXXX....XXXX",
"XXXX....XXXX                                                                                                        XXXX....XXXX",
"XXXX....XXXX                                                                                                        XXXX....XXXX",
"XXXX....XXXX                                                                                                        XXXX....XXXX",
"XXXX....XXXX                                                                                                        XXXX....XXXX",
"XXXX....XXXX                                                                                                        XXXX....XXXX",
"XXXX....XXXX                                                                                                        XXXX....XXXX",
"XXXX....XXXX                                                                                                        XXXX....XXXX",
"XXXX....XXXX                                                                                                        XXXX....XXXX",
"XXXX....XXXX                                                                                                        XXXX....XXXX",
"XXXX....XXXX                                                                                                        XXXX....XXXX",
"XXXX....XXXX                                                                                                        XXXX....XXXX",
"XXXX....XXXX                                                                                                        XXXX....XXXX",
"XXXX....XXXX                                                                                                        XXXX....XXXX",
"XXXX....XXXX                                                                                                        XXXX....XXXX",
"XXXX....XXXX                                                                                                        XXXX....XXXX",
"XXXX....XXXX                                                                                                        XXXX....XXXX",
"XXXX....XXXX                                                                                                        XXXX....XXXX",
"XXXX....XXXX                                                                                                        XXXX....XXXX",
"XXXX....XXXX                                                                                                        XXXX....XXXX",
"XXXX....XXXX                                                                                                        XXXX....XXXX",
"XXXX....XXXX                                                                                                        XXXX....XXXX",
"XXXX....XXXX                                                                                                        XXXX....XXXX",
"XXXX....XXXX                                                                                                        XXXX....XXXX",
"XXXX....XXXX                                                                                                        XXXX....XXXX",
"XXXX....XXXX                                                                                                        XXXX....XXXX",
"XXXX....XXXX                                                                                                        XXXX....XXXX",
"XXXX....XXXX                                                                                                        XXXX....XXXX",
"XXXX....XXXX                                                                                                        XXXX....XXXX",
"XXXX....XXXX                                                                                                        XXXX....XXXX",
"XXXX....XXXX                                                                                                        XXXX....XXXX",
"XXXX....XXXX                                                                                                        XXXX....XXXX",
"XXXX....XXXX                                                                                                        XXXX....XXXX",
"XXXX....XXXX                                                                                                        XXXX....XXXX",
"XXXX....XXXX                                                                                                        XXXX....XXXX",
"XXXX....XXXX                                                                                                        XXXX....XXXX",
"XXXX....XXXX                                                                                                        XXXX....XXXX",
"XXXX....XXXX                                                                                                        XXXX....XXXX",
"XXXX....XXXX                                                                                                        XXXX....XXXX",
"XXXX....XXXX                                                                                                        XXXX....XXXX",
"XXXX....XXXX                                                                                                        XXXX....XXXX",
"XXXX....XXXX                                                                                                        XXXX....XXXX",
"XXXX....XXXX                                                                                                        XXXX....XXXX",
"XXXX....XXXX                                                                                                        XXXX....XXXX",
"XXXX....XXXX                                                                                                        XXXX....XXXX",
"XXXX....XXXX                                                                                                        XXXX....XXXX",
"XXXX....XXXX                                                                                                        XXXX....XXXX",
"XXXX....XXXX                                                                                                        XXXX....XXXX",
"XXXX....XXXX                                                                                                        XXXX....XXXX",
"XXXX....XXXX                                                                                                        XXXX....XXXX",
"XXXX....XXXX                                                                                                        XXXX....XXXX",
"XXXX....XXXX                                                                                                        XXXX....XXXX",
"XXXX....XXXX                                                                                                        XXXX....XXXX",
"XXXX....XXXX                                                                                                        XXXX....XXXX",
"XXXX....XXXX                                                                                                        XXXX....XXXX",
"XXXX....XXXX                                                                                                        XXXX....XXXX",
"XXXX....XXXX                                                                                                        XXXX....XXXX",
"XXXX....XXXX                                                                                                        XXXX....XXXX",
"XXXX....XXXX                                                                                                        XXXX....XXXX",
"XXXX....XXXX                                                                                                        XXXX....XXXX",
"XXXX....XXXX                                                                                                        XXXX....XXXX",
"XXXX....XXXX                                                                                                        XXXX....XXXX",
"XXXX....XXXX                                                                                                        XXXX....XXXX",
"XXXX....XXXX                                                                                                        XXXX....XXXX",
"XXXX....XXXX                                                                                                        XXXX....XXXX",
"XXXX....XXXX                                                                                                        XXXX....XXXX",
"XXXX....XXXX                                                                                                        XXXX....XXXX",
"XXXX....XXXX                                                                                                        XXXX....XXXX",
"XXXX....XXXX                                                                                                        XXXX....XXXX",
"XXXX....XXXX                                                                                                        XXXX....XXXX",
"XXXX....XXXX                                                                                                        XXXX....XXXX",
"XXXX....XXXX                                                                                                        XXXX....XXXX",
"XXXX....XXXX                                                                                                        XXXX....XXXX",
"XXXX....XXXX                                                                                                        XXXX....XXXX",
"XXXX....XXXX                                                                                                        XXXX....XXXX",
"XXXX....XXXX                                                                                                        XXXX....XXXX",
"XXXX....XXXX                                                                                                        XXXX....XXXX",
"XXXX....XXXX                                                                                                        XXXX....XXXX",
"XXXX....XXXX                                                                                                        XXXX....XXXX",
"XXXX....XXXX                                                                                                        XXXX....XXXX",
"XXXX....XXXX                                                                                                        XXXX....XXXX",
"XXXX....XXXX                                                                                                        XXXX....XXXX",
"XXXX....XXXX                                                                                                        XXXX....XXXX",
"XXXX....XXXX                                                                                                        XXXX....XXXX",
"XXXX....XXXX                                                                                                        XXXX....XXXX",
"XXXX....XXXX                                                                                                        XXXX....XXXX",
"XXXX....XXXXXXXXXXXXXXXXXXXXXXXXXXXXXXXXXXXXXXXXXXXXXXXXXXXXXXXXXXXXXXXXXXXXXXXXXXXXXXXXXXXXXXXXXXXXXXXXXXXXXXXXXXXXXXXX....XXXX",
"XXXX....XXXXXXXXXXXXXXXXXXXXXXXXXXXXXXXXXXXXXXXXXXXXXXXXXXXXXXXXXXXXXXXXXXXXXXXXXXXXXXXXXXXXXXXXXXXXXXXXXXXXXXXXXXXXXXXX....XXXX",
"XXXX....XXXXXXXXXXXXXXXXXXXXXXXXXXXXXXXXXXXXXXXXXXXXXXXXXXXXXXXXXXXXXXXXXXXXXXXXXXXXXXXXXXXXXXXXXXXXXXXXXXXXXXXXXXXXXXXX....XXXX",
"XXXX....XXXXXXXXXXXXXXXXXXXXXXXXXXXXXXXXXXXXXXXXXXXXXXXXXXXXXXXXXXXXXXXXXXXXXXXXXXXXXXXXXXXXXXXXXXXXXXXXXXXXXXXXXXXXXXXX....XXXX",
"XXXX........................................................................................................................XXXX",
"XXXX........................................................................................................................XXXX",
"XXXX........................................................................................................................XXXX",
"XXXX........................................................................................................................XXXX",
"XXXXXXXXXXXXXXXXXXXXXXXXXXXXXXXXXXXXXXXXXXXXXXXXXXXXXXXXXXXXXXXXXXXXXXXXXXXXXXXXXXXXXXXXXXXXXXXXXXXXXXXXXXXXXXXXXXXXXXXXXXXXXXXX",
"XXXXXXXXXXXXXXXXXXXXXXXXXXXXXXXXXXXXXXXXXXXXXXXXXXXXXXXXXXXXXXXXXXXXXXXXXXXXXXXXXXXXXXXXXXXXXXXXXXXXXXXXXXXXXXXXXXXXXXXXXXXXXXXX",
"XXXXXXXXXXXXXXXXXXXXXXXXXXXXXXXXXXXXXXXXXXXXXXXXXXXXXXXXXXXXXXXXXXXXXXXXXXXXXXXXXXXXXXXXXXXXXXXXXXXXXXXXXXXXXXXXXXXXXXXXXXXXXXXX",
"XXXXXXXXXXXXXXXXXXXXXXXXXXXXXXXXXXXXXXXXXXXXXXXXXXXXXXXXXXXXXXXXXXXXXXXXXXXXXXXXXXXXXXXXXXXXXXXXXXXXXXXXXXXXXXXXXXXXXXXXXXXXXXXX"
};
