/* XPM */
static char *Ground3[] = {
/* columns rows colors chars-per-pixel */
"128 128 3 1 ",
"  c #222034",
". c #2D2C3E",
"X c #323C39",
/* pixels */
"                                    XXXX                                                                                        ",
"                                    XXXX                                                                                        ",
"                                    XXXX                                                                                        ",
"                                    XXXX                                                                                        ",
"    ................................................XXXX........XXXX........................................................    ",
"    ................................................XXXX........XXXX........................................................    ",
"    ................................................XXXX........XXXX........................................................    ",
"    ................................................XXXX........XXXX........................................................    ",
"    ............................XXXX....................................XXXXXXXX................XXXX....XXXX................    ",
"    ............................XXXX....................................XXXXXXXX................XXXX....XXXX................    ",
"    ............................XXXX....................................XXXXXXXX................XXXX....XXXX................    ",
"    ............................XXXX....................................XXXXXXXX................XXXX....XXXX................    ",
"    ....................................................................XXXX................................................    ",
"    ....................................................................XXXX................................................    ",
"    ....................................................................XXXX................................................    ",
"    ....................................................................XXXX................................................    ",
"    ....................XXXXXXXX........................................XXXX................................XXXX............    ",
"    ....................XXXXXXXX........................................XXXX................................XXXX............    ",
"    ....................XXXXXXXX........................................XXXX................................XXXX............    ",
"    ....................XXXXXXXX........................................XXXX................................XXXX............    ",
"    ............XXXX................XXXX........XXXX....XXXXXXXX............................XXXX............................    ",
"    ............XXXX................XXXX........XXXX....XXXXXXXX............................XXXX............................    ",
"    ............XXXX................XXXX........XXXX....XXXXXXXX............................XXXX............................    ",
"    ............XXXX................XXXX........XXXX....XXXXXXXX............................XXXX............................    ",
"    ............XXXX........................XXXX............XXXX........................................XXXX................    ",
"    ............XXXX........................XXXX............XXXX........................................XXXX................    ",
"    ............XXXX........................XXXX............XXXX........................................XXXX................    ",
"    ............XXXX........................XXXX............XXXX........................................XXXX................    ",
"    ................................................XXXXXXXX............XXXXXXXX............................XXXX............    ",
"    ................................................XXXXXXXX............XXXXXXXX............................XXXX............    ",
"    ................................................XXXXXXXX............XXXXXXXX............................XXXX............    ",
"    ................................................XXXXXXXX............XXXXXXXX............................XXXX............    ",
"    ....XXXX............................XXXX....................................XXXX....XXXX....XXXX........................    ",
"    ....XXXX............................XXXX....................................XXXX....XXXX....XXXX........................    ",
"    ....XXXX............................XXXX....................................XXXX....XXXX....XXXX........................    ",
"    ....XXXX............................XXXX....................................XXXX....XXXX....XXXX........................    ",
"    XXXX................XXXX........XXXX....XXXX........XXXXXXXX....XXXXXXXX....XXXX........XXXX............................    ",
"    XXXX................XXXX........XXXX....XXXX........XXXXXXXX....XXXXXXXX....XXXX........XXXX............................    ",
"    XXXX................XXXX........XXXX....XXXX........XXXXXXXX....XXXXXXXX....XXXX........XXXX............................    ",
"    XXXX................XXXX........XXXX....XXXX........XXXXXXXX....XXXXXXXX....XXXX........XXXX............................    ",
"    ................XXXX............XXXXXXXX....XXXX............XXXXXXXX....XXXXXXXX....XXXXXXXX....XXXX....................    ",
"    ................XXXX............XXXXXXXX....XXXX............XXXXXXXX....XXXXXXXX....XXXXXXXX....XXXX....................    ",
"    ................XXXX............XXXXXXXX....XXXX............XXXXXXXX....XXXXXXXX....XXXXXXXX....XXXX....................    ",
"    ................XXXX............XXXXXXXX....XXXX............XXXXXXXX....XXXXXXXX....XXXXXXXX....XXXX....................    ",
"    ................................XXXX........XXXX........XXXX........XXXX................................................    ",
"    ................................XXXX........XXXX........XXXX........XXXX................................................    ",
"    ................................XXXX........XXXX........XXXX........XXXX................................................    ",
"    ................................XXXX........XXXX........XXXX........XXXX................................................    ",
"    ....XXXX........XXXXXXXX........................XXXX....................XXXXXXXXXXXX....XXXX............................    ",
"    ....XXXX........XXXXXXXX........................XXXX....................XXXXXXXXXXXX....XXXX............................    ",
"    ....XXXX........XXXXXXXX........................XXXX....................XXXXXXXXXXXX....XXXX............................    ",
"    ....XXXX........XXXXXXXX........................XXXX....................XXXXXXXXXXXX....XXXX............................    ",
"    XXXX....................XXXXXXXX....XXXXXXXX....XXXXXXXXXXXX............XXXX............................................XXXX",
"    XXXX....................XXXXXXXX....XXXXXXXX....XXXXXXXXXXXX............XXXX............................................XXXX",
"    XXXX....................XXXXXXXX....XXXXXXXX....XXXXXXXXXXXX............XXXX............................................XXXX",
"    XXXX....................XXXXXXXX....XXXXXXXX....XXXXXXXXXXXX............XXXX............................................XXXX",
"    ........XXXX....................XXXXXXXX........XXXX....XXXXXXXX....XXXX....XXXX........XXXX....XXXXXXXX................    ",
"    ........XXXX....................XXXXXXXX........XXXX....XXXXXXXX....XXXX....XXXX........XXXX....XXXXXXXX................    ",
"    ........XXXX....................XXXXXXXX........XXXX....XXXXXXXX....XXXX....XXXX........XXXX....XXXXXXXX................    ",
"    ........XXXX....................XXXXXXXX........XXXX....XXXXXXXX....XXXX....XXXX........XXXX....XXXXXXXX................    ",
"XXXX....................XXXXXXXXXXXX....XXXXXXXXXXXXXXXXXXXXXXXXXXXXXXXX....XXXX........XXXX............XXXX................XXXX",
"XXXX....................XXXXXXXXXXXX....XXXXXXXXXXXXXXXXXXXXXXXXXXXXXXXX....XXXX........XXXX............XXXX................XXXX",
"XXXX....................XXXXXXXXXXXX....XXXXXXXXXXXXXXXXXXXXXXXXXXXXXXXX....XXXX........XXXX............XXXX................XXXX",
"XXXX....................XXXXXXXXXXXX....XXXXXXXXXXXXXXXXXXXXXXXXXXXXXXXX....XXXX........XXXX............XXXX................XXXX",
"    ........XXXX........XXXX....................XXXXXXXXXXXXXXXX........XXXX............XXXX....................XXXX....XXXX    ",
"    ........XXXX........XXXX....................XXXXXXXXXXXXXXXX........XXXX............XXXX....................XXXX....XXXX    ",
"    ........XXXX........XXXX....................XXXXXXXXXXXXXXXX........XXXX............XXXX....................XXXX....XXXX    ",
"    ........XXXX........XXXX....................XXXXXXXXXXXXXXXX........XXXX............XXXX....................XXXX....XXXX    ",
"    ........................XXXX....................XXXX....XXXXXXXXXXXXXXXX....XXXX....XXXXXXXX....XXXXXXXX............XXXX    ",
"    ........................XXXX....................XXXX....XXXXXXXXXXXXXXXX....XXXX....XXXXXXXX....XXXXXXXX............XXXX    ",
"    ........................XXXX....................XXXX....XXXXXXXXXXXXXXXX....XXXX....XXXXXXXX....XXXXXXXX............XXXX    ",
"    ........................XXXX....................XXXX....XXXXXXXXXXXXXXXX....XXXX....XXXXXXXX....XXXXXXXX............XXXX    ",
"    XXXX....................................XXXXXXXXXXXX....XXXX............XXXX........XXXX............XXXX................    ",
"    XXXX....................................XXXXXXXXXXXX....XXXX............XXXX........XXXX............XXXX................    ",
"    XXXX....................................XXXXXXXXXXXX....XXXX............XXXX........XXXX............XXXX................    ",
"    XXXX....................................XXXXXXXXXXXX....XXXX............XXXX........XXXX............XXXX................    ",
"    ................XXXX............................XXXXXXXX....XXXX............XXXXXXXX....................XXXX....XXXX....    ",
"    ................XXXX............................XXXXXXXX....XXXX............XXXXXXXX....................XXXX....XXXX....    ",
"    ................XXXX............................XXXXXXXX....XXXX............XXXXXXXX....................XXXX....XXXX....    ",
"    ................XXXX............................XXXXXXXX....XXXX............XXXXXXXX....................XXXX....XXXX....    ",
"    ................................XXXXXXXXXXXX........XXXXXXXX....XXXX........XXXX....XXXX................................    ",
"    ................................XXXXXXXXXXXX........XXXXXXXX....XXXX........XXXX....XXXX................................    ",
"    ................................XXXXXXXXXXXX........XXXXXXXX....XXXX........XXXX....XXXX................................    ",
"    ................................XXXXXXXXXXXX........XXXXXXXX....XXXX........XXXX....XXXX................................    ",
"    ............................XXXXXXXX....................XXXX....XXXX....XXXXXXXXXXXX....XXXX....XXXX................XXXXXXXX",
"    ............................XXXXXXXX....................XXXX....XXXX....XXXXXXXXXXXX....XXXX....XXXX................XXXXXXXX",
"    ............................XXXXXXXX....................XXXX....XXXX....XXXXXXXXXXXX....XXXX....XXXX................XXXXXXXX",
"    ............................XXXXXXXX....................XXXX....XXXX....XXXXXXXXXXXX....XXXX....XXXX................XXXXXXXX",
"    ....................XXXX................................XXXX................XXXX............................XXXX........    ",
"    ....................XXXX................................XXXX................XXXX............................XXXX........    ",
"    ....................XXXX................................XXXX................XXXX............................XXXX........    ",
"    ....................XXXX................................XXXX................XXXX............................XXXX........    ",
"    ....................XXXX....................................XXXX................................XXXX....................    ",
"    ....................XXXX....................................XXXX................................XXXX....................    ",
"    ....................XXXX....................................XXXX................................XXXX....................    ",
"    ....................XXXX....................................XXXX................................XXXX....................    ",
"    ....................XXXX............XXXX........XXXX............XXXX........XXXX........XXXXXXXX....XXXX................    ",
"    ....................XXXX............XXXX........XXXX............XXXX........XXXX........XXXXXXXX....XXXX................    ",
"    ....................XXXX............XXXX........XXXX............XXXX........XXXX........XXXXXXXX....XXXX................    ",
"    ....................XXXX............XXXX........XXXX............XXXX........XXXX........XXXXXXXX....XXXX................    ",
"    ....................................XXXX....XXXX....................................XXXX....XXXX........................    ",
"    ....................................XXXX....XXXX....................................XXXX....XXXX........................    ",
"    ....................................XXXX....XXXX....................................XXXX....XXXX........................    ",
"    ....................................XXXX....XXXX....................................XXXX....XXXX........................    ",
"    ............XXXX........................XXXX....XXXX....XXXXXXXX....................XXXX............XXXXXXXX............    ",
"    ............XXXX........................XXXX....XXXX....XXXXXXXX....................XXXX............XXXXXXXX............    ",
"    ............XXXX........................XXXX....XXXX....XXXXXXXX....................XXXX............XXXXXXXX............    ",
"    ............XXXX........................XXXX....XXXX....XXXXXXXX....................XXXX............XXXXXXXX............    ",
"    ........................XXXX............XXXXXXXXXXXX....................................XXXX............................    ",
"    ........................XXXX............XXXXXXXXXXXX....................................XXXX............................    ",
"    ........................XXXX............XXXXXXXXXXXX....................................XXXX............................    ",
"    ........................XXXX............XXXXXXXXXXXX....................................XXXX............................    ",
"    ................................XXXX....................XXXX........XXXX................................................    ",
"    ................................XXXX....................XXXX........XXXX................................................    ",
"    ................................XXXX....................XXXX........XXXX................................................    ",
"    ................................XXXX....................XXXX........XXXX................................................    ",
"    ....................XXXX....XXXX........................................................................................    ",
"    ....................XXXX....XXXX........................................................................................    ",
"    ....................XXXX....XXXX........................................................................................    ",
"    ....................XXXX....XXXX........................................................................................    ",
"    ....................................XXXX........XXXX............XXXXXXXXXXXX............................................    ",
"    ....................................XXXX........XXXX............XXXXXXXXXXXX............................................    ",
"    ....................................XXXX........XXXX............XXXXXXXXXXXX............................................    ",
"    ....................................XXXX........XXXX............XXXXXXXXXXXX............................................    ",
"                                                XXXX            XXXX                                                            ",
"                                                XXXX            XXXX                                                            ",
"                                                XXXX            XXXX                                                            ",
"                                                XXXX            XXXX                                                            "
};
