/* XPM */
static char *Ground4[] = {
/* columns rows colors chars-per-pixel */
"128 128 4 1 ",
"  c #222034",
". c #2D2C3E",
"X c #042868",
"o c #254D93",
/* pixels */
"                                                                                                                                ",
"                                                                                                                                ",
"                                                                                                                                ",
"                                                                                                                                ",
"    ........................................................................................................................    ",
"    ........................................................................................................................    ",
"    ........................................................................................................................    ",
"    ........................................................................................................................    ",
"    ........................................................................................................................    ",
"    ........................................................................................................................    ",
"    ........................................................................................................................    ",
"    ........................................................................................................................    ",
"    ........................................................................................................................    ",
"    ........................................................................................................................    ",
"    ........................................................................................................................    ",
"    ........................................................................................................................    ",
"    ........................................................................................................................    ",
"    ........................................................................................................................    ",
"    ........................................................................................................................    ",
"    ........................................................................................................................    ",
"    ........................................................................................................................    ",
"    ........................................................................................................................    ",
"    ........................................................................................................................    ",
"    ........................................................................................................................    ",
"    ........................................................................................................................    ",
"    ........................................................................................................................    ",
"    ........................................................................................................................    ",
"    ........................................................................................................................    ",
"    ........................................................................................................................    ",
"    ........................................................................................................................    ",
"    ........................................................................................................................    ",
"    ........................................................................................................................    ",
"    ........................................................................................................................    ",
"    ........................................................................................................................    ",
"    ........................................................................................................................    ",
"    ........................................................................................................................    ",
"    ............................................oooooooooooooooooooooooooooooooooooo........................................    ",
"    ............................................oooooooooooooooooooooooooooooooooooo........................................    ",
"    ............................................oooooooooooooooooooooooooooooooooooo........................................    ",
"    ............................................oooooooooooooooooooooooooooooooooooo........................................    ",
"    ................................ooooooooooooooooooooooooooooXXXXoooooooooooooooooooooooooooo............................    ",
"    ................................ooooooooooooooooooooooooooooXXXXoooooooooooooooooooooooooooo............................    ",
"    ................................ooooooooooooooooooooooooooooXXXXoooooooooooooooooooooooooooo............................    ",
"    ................................ooooooooooooooooooooooooooooXXXXoooooooooooooooooooooooooooo............................    ",
"    ........................oooooooooooooooooooooooooooooooooooooooooooooooooooooooooooooooooooooooooooo....................    ",
"    ........................oooooooooooooooooooooooooooooooooooooooooooooooooooooooooooooooooooooooooooo....................    ",
"    ........................oooooooooooooooooooooooooooooooooooooooooooooooooooooooooooooooooooooooooooo....................    ",
"    ........................oooooooooooooooooooooooooooooooooooooooooooooooooooooooooooooooooooooooooooo....................    ",
"    ....................oooooooooooooooooooooooooooooooooooooooooooooooooooooooooooooooooooooooooooooooooooo................    ",
"    ....................oooooooooooooooooooooooooooooooooooooooooooooooooooooooooooooooooooooooooooooooooooo................    ",
"    ....................oooooooooooooooooooooooooooooooooooooooooooooooooooooooooooooooooooooooooooooooooooo................    ",
"    ....................oooooooooooooooooooooooooooooooooooooooooooooooooooooooooooooooooooooooooooooooooooo................    ",
"    ................oooooooooooooooooooooooooooooooooooooooooooooooooooooooooooooooooooooooooooooooooooooooooooo............    ",
"    ................oooooooooooooooooooooooooooooooooooooooooooooooooooooooooooooooooooooooooooooooooooooooooooo............    ",
"    ................oooooooooooooooooooooooooooooooooooooooooooooooooooooooooooooooooooooooooooooooooooooooooooo............    ",
"    ................oooooooooooooooooooooooooooooooooooooooooooooooooooooooooooooooooooooooooooooooooooooooooooo............    ",
"    ............oooooooooooooooooooooooooooooooooooooooooooooooooooooooooooooooooooooooooooooooooooooooooooooooooooo........    ",
"    ............oooooooooooooooooooooooooooooooooooooooooooooooooooooooooooooooooooooooooooooooooooooooooooooooooooo........    ",
"    ............oooooooooooooooooooooooooooooooooooooooooooooooooooooooooooooooooooooooooooooooooooooooooooooooooooo........    ",
"    ............oooooooooooooooooooooooooooooooooooooooooooooooooooooooooooooooooooooooooooooooooooooooooooooooooooo........    ",
"    ............ooooooooooooXXXXooooooooooooXXXXooooooooooooooooooooooooooooooooooooXXXXoooooooooooooooooooooooooooo........    ",
"    ............ooooooooooooXXXXooooooooooooXXXXooooooooooooooooooooooooooooooooooooXXXXoooooooooooooooooooooooooooo........    ",
"    ............ooooooooooooXXXXooooooooooooXXXXooooooooooooooooooooooooooooooooooooXXXXoooooooooooooooooooooooooooo........    ",
"    ............ooooooooooooXXXXooooooooooooXXXXooooooooooooooooooooooooooooooooooooXXXXoooooooooooooooooooooooooooo........    ",
"    ............ooooooooXXXXoooooooooooooooooooooooooooooooooooooooooooooooooooooooooooooooooooooooooooooooooooooooo........    ",
"    ............ooooooooXXXXoooooooooooooooooooooooooooooooooooooooooooooooooooooooooooooooooooooooooooooooooooooooo........    ",
"    ............ooooooooXXXXoooooooooooooooooooooooooooooooooooooooooooooooooooooooooooooooooooooooooooooooooooooooo........    ",
"    ............ooooooooXXXXoooooooooooooooooooooooooooooooooooooooooooooooooooooooooooooooooooooooooooooooooooooooo........    ",
"    ................ooooooooooooooooooooooooooooooooooooooooooooooooooooXXXXoooooooooooooooooooooooooooooooooooo............    ",
"    ................ooooooooooooooooooooooooooooooooooooooooooooooooooooXXXXoooooooooooooooooooooooooooooooooooo............    ",
"    ................ooooooooooooooooooooooooooooooooooooooooooooooooooooXXXXoooooooooooooooooooooooooooooooooooo............    ",
"    ................ooooooooooooooooooooooooooooooooooooooooooooooooooooXXXXoooooooooooooooooooooooooooooooooooo............    ",
"    ....................oooooooooooooooooooooooooooooooooooooooooooooooooooooooooooooooooooooooooooooooooooo................    ",
"    ....................oooooooooooooooooooooooooooooooooooooooooooooooooooooooooooooooooooooooooooooooooooo................    ",
"    ....................oooooooooooooooooooooooooooooooooooooooooooooooooooooooooooooooooooooooooooooooooooo................    ",
"    ....................oooooooooooooooooooooooooooooooooooooooooooooooooooooooooooooooooooooooooooooooooooo................    ",
"    ........................ooooooooooooooooooooooooooooooooXXXXooooooooooooooooooooXXXXoooooooooooooooo....................    ",
"    ........................ooooooooooooooooooooooooooooooooXXXXooooooooooooooooooooXXXXoooooooooooooooo....................    ",
"    ........................ooooooooooooooooooooooooooooooooXXXXooooooooooooooooooooXXXXoooooooooooooooo....................    ",
"    ........................ooooooooooooooooooooooooooooooooXXXXooooooooooooooooooooXXXXoooooooooooooooo....................    ",
"    ................................ooooooooooooooooXXXXoooooooooooooooooooooooooooooooooooooooo............................    ",
"    ................................ooooooooooooooooXXXXoooooooooooooooooooooooooooooooooooooooo............................    ",
"    ................................ooooooooooooooooXXXXoooooooooooooooooooooooooooooooooooooooo............................    ",
"    ................................ooooooooooooooooXXXXoooooooooooooooooooooooooooooooooooooooo............................    ",
"    ............................................oooooooooooooooooooooooooooooooooooo........................................    ",
"    ............................................oooooooooooooooooooooooooooooooooooo........................................    ",
"    ............................................oooooooooooooooooooooooooooooooooooo........................................    ",
"    ............................................oooooooooooooooooooooooooooooooooooo........................................    ",
"    ........................................................................................................................    ",
"    ........................................................................................................................    ",
"    ........................................................................................................................    ",
"    ........................................................................................................................    ",
"    ........................................................................................................................    ",
"    ........................................................................................................................    ",
"    ........................................................................................................................    ",
"    ........................................................................................................................    ",
"    ........................................................................................................................    ",
"    ........................................................................................................................    ",
"    ........................................................................................................................    ",
"    ........................................................................................................................    ",
"    ........................................................................................................................    ",
"    ........................................................................................................................    ",
"    ........................................................................................................................    ",
"    ........................................................................................................................    ",
"    ........................................................................................................................    ",
"    ........................................................................................................................    ",
"    ........................................................................................................................    ",
"    ........................................................................................................................    ",
"    ........................................................................................................................    ",
"    ........................................................................................................................    ",
"    ........................................................................................................................    ",
"    ........................................................................................................................    ",
"    ........................................................................................................................    ",
"    ........................................................................................................................    ",
"    ........................................................................................................................    ",
"    ........................................................................................................................    ",
"    ........................................................................................................................    ",
"    ........................................................................................................................    ",
"    ........................................................................................................................    ",
"    ........................................................................................................................    ",
"    ........................................................................................................................    ",
"    ........................................................................................................................    ",
"    ........................................................................................................................    ",
"    ........................................................................................................................    ",
"                                                                                                                                ",
"                                                                                                                                ",
"                                                                                                                                ",
"                                                                                                                                "
};
