/* XPM */
static char *Ration[] = {
/* columns rows colors chars-per-pixel */
"128 128 4 1 ",
"  c None",
". c #32280F",
"X c #8A6F30",
"o c #A68841",
/* pixels */
"                                                                                                                                ",
"                                                                                                                                ",
"                                                                                                                                ",
"                                                                                                                                ",
"                                                                                                                                ",
"                                                                                                                                ",
"                                                                                                                                ",
"                                                                                                                                ",
"                                                                                                                                ",
"                                                                                                                                ",
"                                                                                                                                ",
"                                                                                                                                ",
"                                                                                                                                ",
"                                                                                                                                ",
"                                                                                                                                ",
"                                                                                                                                ",
"                                                                                                                                ",
"                                                                                                                                ",
"                                                                                                                                ",
"                                                                                                                                ",
"                                                                                                                                ",
"                                                                                                                                ",
"                                                                                                                                ",
"                                                                                                                                ",
"                                                                                                                                ",
"                                                                                                                                ",
"                                                                                                                                ",
"                                                                                                                                ",
"                                                                                                                                ",
"                                                                                                                                ",
"                                                                                                                                ",
"                                                                                                                                ",
"                                                                                                                                ",
"                                                                                                                                ",
"                                                                                                                                ",
"                                                                                                                                ",
"                                                                                                                                ",
"                                                                                                                                ",
"                                                                                                                                ",
"                                                                                                                                ",
"                                                                                                                                ",
"                                                                                                                                ",
"                                                                                                                                ",
"                                                                                                                                ",
"                                                                                                                                ",
"                                                                                                                                ",
"                                                                                                                                ",
"                                                                                                                                ",
"                                                                                                                                ",
"                                                                                                                                ",
"                                                                                                                                ",
"                                                                                                                                ",
"                                                                                                                                ",
"                                                                                                                                ",
"                                                ..................................                                              ",
"                                                ..................................                                              ",
"                                    ............XXXXXXXXXXXXXXXXXXXXXXXXXXXXXXXXXX............                                  ",
"                                    ............XXXXXXXXXXXXXXXXXXXXXXXXXXXXXXXXXX............                                  ",
"                              ......XXXXXXXXXXXXXXXXXXXXXXXXXXXXXXXXXXXXXXXXXXXXXXXXXXXXXXXXXX......                            ",
"                              ......XXXXXXXXXXXXXXXXXXXXXXXXXXXXXXXXXXXXXXXXXXXXXXXXXXXXXXXXXX......                            ",
"                          ....XXXXXXXXXXXX..............................................XXXXXXXXXXXX....                        ",
"                          ....XXXXXXXXXXXX..............................................XXXXXXXXXXXX....                        ",
"                        ..XXXXXX..........oooooooooooooooooooooooooooooooooooooooooooooo..........XXXXXX..                      ",
"                        ..XXXXXX..........oooooooooooooooooooooooooooooooooooooooooooooo..........XXXXXX..                      ",
"                        ..XXXX..oooooooooooooooooooooooooooooooooooooooooooooooo..oooooooooooooooo..XXXX..                      ",
"                        ..XXXX..oooooooooooooooooooooooooooooooooooooooooooooooo..oooooooooooooooo..XXXX..                      ",
"                        ..XXXXXX..........oooooooooooooooooooooooooooooooooooooo....oooo..........XXXXXX..                      ",
"                        ..XXXXXX..........oooooooooooooooooooooooooooooooooooooo....oooo..........XXXXXX..                      ",
"                        ......XXXXXXXXXXXX..............................................XXXXXXXXXXXX......                      ",
"                        ......XXXXXXXXXXXX..............................................XXXXXXXXXXXX......                      ",
"                        ..XXXX......XXXXXXXXXXXXXXXXXXXXXXXXXXXXXXXXXXXXXXXXXXXXXXXXXXXXXXXXXX......XXXX..                      ",
"                        ..XXXX......XXXXXXXXXXXXXXXXXXXXXXXXXXXXXXXXXXXXXXXXXXXXXXXXXXXXXXXXXX......XXXX..                      ",
"                        ..XXXXXXXXXX............XXXXXXXXXXXXXXXXXXXXXXXXXXXXXXXXXX............XXXXXXXXXX..                      ",
"                        ..XXXXXXXXXX............XXXXXXXXXXXXXXXXXXXXXXXXXXXXXXXXXX............XXXXXXXXXX..                      ",
"                        ..XXXXXXXXXXXXXXXXXXXXXX..................................XXXXXXXXXXXXXXXXXXXXXX..                      ",
"                        ..XXXXXXXXXXXXXXXXXXXXXX..................................XXXXXXXXXXXXXXXXXXXXXX..                      ",
"                        ..XXXXXXXXXXXXXXXXXXXXXXXXXXXXXXXXXXXXXXXXXXXXXXXXXXXXXXXXXXXXXXXXXXXXXXXXXXXXXX..                      ",
"                        ..XXXXXXXXXXXXXXXXXXXXXXXXXXXXXXXXXXXXXXXXXXXXXXXXXXXXXXXXXXXXXXXXXXXXXXXXXXXXXX..                      ",
"                        ..XXXXXX......XXXXXX....XXXX..........XX..XXXXXX....XXXX..XXXXXX..XXXXXXXXXXXXXX..                      ",
"                        ..XXXXXX......XXXXXX....XXXX..........XX..XXXXXX....XXXX..XXXXXX..XXXXXXXXXXXXXX..                      ",
"                        ..XXXXXX..XXXX..XX..XXXX..XXXXXX..XXXXXXXXXXXX..XXXX..XX....XXXX..XXXXXXXXXXXXXX..                      ",
"                        ..XXXXXX..XXXX..XX..XXXX..XXXXXX..XXXXXXXXXXXX..XXXX..XX....XXXX..XXXXXXXXXXXXXX..                      ",
"                        ..XXXXXX..XXXX..XX..XXXX..XXXXXX..XXXXXX..XXXX..XXXX..XX..XX..XX..XXXXXXXXXXXXXX..                      ",
"                        ..XXXXXX..XXXX..XX..XXXX..XXXXXX..XXXXXX..XXXX..XXXX..XX..XX..XX..XXXXXXXXXXXXXX..                      ",
"                        ..XXXXXX......XXXX........XXXXXX..XXXXXX..XXXX..XXXX..XX..XXXX....XXXXXXXXXXXXXX..                      ",
"                        ..XXXXXX......XXXX........XXXXXX..XXXXXX..XXXX..XXXX..XX..XXXX....XXXXXXXXXXXXXX..                      ",
"                        ..XXXXXX..XXXX..XX..XXXX..XXXXXX..XXXXXX..XXXX..XXXX..XX..XXXXXX..XXXXXXXXXXXXXX..                      ",
"                        ..XXXXXX..XXXX..XX..XXXX..XXXXXX..XXXXXX..XXXX..XXXX..XX..XXXXXX..XXXXXXXXXXXXXX..                      ",
"                        ..XXXXXX..XXXX..XX..XXXX..XXXXXX..XXXXXX..XXXXXX....XXXX..XXXXXX..XXXXXXXXXXXXXX..                      ",
"                        ..XXXXXX..XXXX..XX..XXXX..XXXXXX..XXXXXX..XXXXXX....XXXX..XXXXXX..XXXXXXXXXXXXXX..                      ",
"                        ..XXXXXXXXXXXXXXXXXXXXXXXXXXXXXXXXXXXXXXXXXXXXXXXXXXXXXXXXXXXXXXXXXXXXXXXXXXXXXX..                      ",
"                        ..XXXXXXXXXXXXXXXXXXXXXXXXXXXXXXXXXXXXXXXXXXXXXXXXXXXXXXXXXXXXXXXXXXXXXXXXXXXXXX..                      ",
"                        ..XXXXXXXXXXXXXXXXXXXXXXXXXXXXXXXXXXXXXXXXXXXXXXXXXXXXXXXXXXXXXXXXXXXXXXXXXXXXXX..                      ",
"                        ..XXXXXXXXXXXXXXXXXXXXXXXXXXXXXXXXXXXXXXXXXXXXXXXXXXXXXXXXXXXXXXXXXXXXXXXXXXXXXX..                      ",
"                          ....XXXXXXXXXXXXXXXXXXXXXXXXXXXXXXXXXXXXXXXXXXXXXXXXXXXXXXXXXXXXXXXXXXXXXX....                        ",
"                          ....XXXXXXXXXXXXXXXXXXXXXXXXXXXXXXXXXXXXXXXXXXXXXXXXXXXXXXXXXXXXXXXXXXXXXX....                        ",
"                              ......XXXXXXXXXXXXXXXXXXXXXXXXXXXXXXXXXXXXXXXXXXXXXXXXXXXXXXXXXX......                            ",
"                              ......XXXXXXXXXXXXXXXXXXXXXXXXXXXXXXXXXXXXXXXXXXXXXXXXXXXXXXXXXX......                            ",
"                                    ............XXXXXXXXXXXXXXXXXXXXXXXXXXXXXXXXXX............                                  ",
"                                    ............XXXXXXXXXXXXXXXXXXXXXXXXXXXXXXXXXX............                                  ",
"                                                ..................................                                              ",
"                                                ..................................                                              ",
"                                                                                                                                ",
"                                                                                                                                ",
"                                                                                                                                ",
"                                                                                                                                ",
"                                                                                                                                ",
"                                                                                                                                ",
"                                                                                                                                ",
"                                                                                                                                ",
"                                                                                                                                ",
"                                                                                                                                ",
"                                                                                                                                ",
"                                                                                                                                ",
"                                                                                                                                ",
"                                                                                                                                ",
"                                                                                                                                ",
"                                                                                                                                ",
"                                                                                                                                ",
"                                                                                                                                ",
"                                                                                                                                ",
"                                                                                                                                ",
"                                                                                                                                ",
"                                                                                                                                ",
"                                                                                                                                ",
"                                                                                                                                ",
"                                                                                                                                ",
"                                                                                                                                "
};
