/* XPM */
static char *Absolute_Gameplay[] = {
/* columns rows colors chars-per-pixel */
"128 128 6 1 ",
"  c black",
". c #1D2724",
"X c #2D463E",
"o c #4C4C4C",
"O c #595652",
"+ c #626262",
/* pixels */
"................................................................................................................................",
"................................................................................................................................",
"XXXXXXXXXXXXXXXXXXXXXXXXXXXXXXXXXXXXXXXXXXXXXXXXXXXXXXXXXXXXXXXXXXXXXXXXXXXXXXXXXXXXXXXXXXXXXXXXXXXXXXXXXXXXXXXXXXXXXXXXXXXXXXXX",
"XXXXXXXXXXXXXXXXXXXXXXXXXXXXXXXXXXXXXXXXXXXXXXXXXXXXXXXXXXXXXXXXXXXXXXXXXXXXXXXXXXXXXXXXXXXXXXXXXXXXXXXXXXXXXXXXXXXXXXXXXXXXXXXX",
"XXXXXXXXXXXXXXXXXXXXXXXXXXXXXXXXXXXXXXXXXXXXXXXXXXXXXXXXXXXXXXXXXXXXXXXXXXXXXXXXXXXXXXXXXXXXXXXXXXXXXXXXXXXXXXXXXXXXXXXXXXXXXXXX",
"XXXXXXXXXXXXXXXXXXXXXXXXXXXXXXXXXXXXXXXXXXXXXXXXXXXXXXXXXXXXXXXXXXXXXXXXXXXXXXXXXXXXXXXXXXXXXXXXXXXXXXXXXXXXXXXXXXXXXXXXXXXXXXXX",
"XXXXXXXXXXXXXXXXXXXXXXXXXXXXXXXXXXXXXXXXXXXXXXXXXXXXXXXXXXXXXXXXXXXXXXXXXXXXXXXXXXXXXXXXXXXXXXXXXXXXXXXXXXXXXXXXXXXXXXXXXXXXXXXX",
"XXXXXXXXXXXXXXXXXXXXXXXXXXXXXXXXXXXXXXXXXXXXXXXXXXXXXXXXXXXXXXXXXXXXXXXXXXXXXXXXXXXXXXXXXXXXXXXXXXXXXXXXXXXXXXXXXXXXXXXXXXXXXXXX",
"XXXXXXXXXXOOOOOOOOOOOOOOOOOOOOOOOOOOOOOOOOOOOOOOOOOOOOOOOOOOOOOOOOOOOOOOOOOOOOOOOOOOOOOOOOOOOOOOOOOOOOOOOOOOOOOOOOOOOOXXXXXXXXXX",
"XXXXXXXXXXOOOOOOOOOOOOOOOOOOOOOOOOOOOOOOOOOOOOOOOOOOOOOOOOOOOOOOOOOOOOOOOOOOOOOOOOOOOOOOOOOOOOOOOOOOOOOOOOOOOOOOOOOOOOXXXXXXXXXX",
"XXXXXXXXXXOOOOOOOOOOOOOOOOOOOOOOOOOOOOOOOOOOOOOOOOOOOOOOOOOOOOOOOOOOOOOOOOOOOOOOOOOOOOOOOOOOOOOOOOOOOOOOOOOOOOOOOOOOOOXXXXXXXXXX",
"XXXXXXXXXXOOOOOOOOOOOOOOOOOOOOOOOOOOOOOOOOOOOOOOOOOOOOOOOOOOOOOOOOOOOOOOOOOOOOOOOOOOOOOOOOOOOOOOOOOOOOOOOOOOOOOOOOOOOOXXXXXXXXXX",
"XXXXXXXXXXOOOOOOOOOOOOOOOOOOOOOOOOOOOOOOOOOOOOOOOOOOOOOOOOOOOOOOOOOOOOOOOOOOOOOOOOOOOOOOOOOOOOOOOOOOOOOOOOOOOOOOOOOOOOXXXXXXXXXX",
"XXXXXXXXXXOOOOOOOOOOOOOOOOOOOOOOOOOOOOOOOOOOOOOOOOOOOOOOOOOOOOOOOOOOOOOOOOOOOOOOOOOOOOOOOOOOOOOOOOOOOOOOOOOOOOOOOOOOOOXXXXXXXXXX",
"XXXXXXXXXXOOOOOOOOOOOOOOOOOOOOOOOOOOOOOOOOOOOOOOOOOOOOOOOOOOOOOOOOOOOOOOOOOOOOOOOOOOOOOOOOOOOOOOOOOOOOOOOOOOOOOOOOOOOOXXXXXXXXXX",
"XXXXXXXXXXOOOOOOOOOOOOOOOOOOOOOOOOOOOOOOOOOOOOOOOOOOOOOOOOOOOOOOOOOOOOOOOOOOOOOOOOOOOOOOOOOOOOOOOOOOOOOOOOOOOOOOOOOOOOXXXXXXXXXX",
"XXXXXXXXXXOOOOOOOOOOOOOOOOOOOOOOOOOOOOOOOOOOOOOOOOOOOOOOOOOOOOOOOOOOOOOOOOOOOOOOOOOOOOOOOOOOOOOOOOOOOOOOOOOOOOOOOOOOOOXXXXXXXXXX",
"XXXXXXXXXXOOOOOOOOOOOOOOOOOOOOOOOOOOOOOOOOOOOOOOOOOOOOOOOOOOOOOOOOOOOOOOOOOOOOOOOOOOOOOOOOOOOOOOOOOOOOOOOOOOOOOOOOOOOOXXXXXXXXXX",
"XXXXXXXXXXOOOOOOOOOOOOOOOOOOOOOOOOOOOOOOOOOOOOOOOOOOOOOOOOOOOOOOOOOOOOOOOOOOOOOOOOOOOOOOOOOOOOOOOOOOOOOOOOOOOOOOOOOOOOXXXXXXXXXX",
"XXXXXXXXXXOOOOOOOOOOOOOOOOOOOOOOOOOOOOOOOOOOOOOOOOOOOOOOOOOOOOOOOOOOOOOOOOOOOOOOOOOOOOOOOOOOOOOOOOOOOOOOOOOOOOOOOOOOOOXXXXXXXXXX",
"XXXXXXXXXXOOOOOOOOOOOOOOOOOOOOOOOOOOOOOOOOOOOOOOOOOOOOOOOOOOOOOOOOOOOOOOOOOOOOOOOOOOOOOOOOOOOOOOOOOOOOOOOOOOOOOOOOOOOOXXXXXXXXXX",
"XXXXXXXXXXOOOOOOOOOOOOOOOOOOOOOOOOOOOOOOOOOOOOOOOOOOOOOOOOOOOOOOOOOOOOOOOOOOOOOOOOOOOOOOOOOOOOOOOOOOOOOOOOOOOOOOOOOOOOXXXXXXXXXX",
"XXXXXXXXXXOOOOOOOOOOOOOOOOOOOOOOOOOOOOOOOOOOOOOOOOOOOOOOOOOOOOOOOOOOOOOOOOOOOOOOOOOOOOOOOOOOOOOOOOOOOOOOOOOOOOOOOOOOOOXXXXXXXXXX",
"XXXXXXXXXXOOOOOOOOOOOOOOOOOOOOOOOOOOOOOOOOOOOOOOOOOOOOOOOOOOOOOOOOOOOOOOOOOOOOOOOOOOOOOOOOOOOOOOOOOOOOOOOOOOOOOOOOOOOOXXXXXXXXXX",
"XXXXXXXXXXOOOOOOOOOOOOOOOOOOOOOOOOOOOOOOOOOOOOOOOOOOOOOOOOOOOOOOOOOOOOOOOOOOOOOOOOOOOOOOOOOOOOOOOOOOOOOOOOOOOOOOOOOOOOXXXXXXXXXX",
"XXXXXXXXXXOOOOOOOOOOOOOOOOOOOOOOOOOOOOOOOOOOOOOOOOOOOOOOOOOOOOOOOOOOOOOOOOOOOOOOOOOOOOOOOOOOOOOOOOOOOOOOOOOOOOOOOOOOOOXXXXXXXXXX",
"XXXXXXXXXXOOOOOOOOOOOOOOOOOOOOOOOOOOOOOOOOOOOOOOooooooooooooooooooooooooooooooOOOOOOOOOOOOOOOOOOOOOOOOOOOOOOOOOOOOOOOOXXXXXXXXXX",
"XXXXXXXXXXOOOOOOOOOOOOOOOOOOOOOOOOOOOOOOOOOOOOOOooooooooooooooooooooooooooooooOOOOOOOOOOOOOOOOOOOOOOOOOOOOOOOOOOOOOOOOXXXXXXXXXX",
"XXXXXXXXXXOOOOOOOOOOOOOOOOOOOOOOOOOOOOOOOOOOOOOOooooooooooooooooooooooooooooooOOOOOOOOOOOOOOOOOOOOOOOOOOOOOOOOOOOOOOOOXXXXXXXXXX",
"XXXXXXXXXXOOOOOOOOOOOOOOOOOOOOOOOOOOOOOOOOOOOOOOooooooooooooooooooooooooooooooOOOOOOOOOOOOOOOOOOOOOOOOOOOOOOOOOOOOOOOOXXXXXXXXXX",
"XXXXXXXXXXOOOOOOOOOOOOOOOOOOOOOOOOOOOOOOOOOOOOoooooooooooooooooooo++++++++ooooOOOOOOOOOOOOOOOOOOOOOOOOOOOOOOOOOOOOOOOOXXXXXXXXXX",
"XXXXXXXXXXOOOOOOOOOOOOOOOOOOOOOOOOOOOOOOOOOOOOoooooooooooooooooooo++++++++ooooOOOOOOOOOOOOOOOOOOOOOOOOOOOOOOOOOOOOOOOOXXXXXXXXXX",
"XXXXXXXXXXOOOOOOOOOOOOOOOOOOOOOOOOOOOOOOOOOOOOoooooooooooooo++++++++++++++ooooooOOOOOOOOOOOOOOOOOOOOOOOOOOOOOOOOOOOOOOXXXXXXXXXX",
"XXXXXXXXXXOOOOOOOOOOOOOOOOOOOOOOOOOOOOOOOOOOOOoooooooooooooo++++++++++++++ooooooOOOOOOOOOOOOOOOOOOOOOOOOOOOOOOOOOOOOOOXXXXXXXXXX",
"XXXXXXXXXXOOOOOOOOOOOOOOOOOOOOOOOOOOOOOOOOOOOOoooooo        ++            ++ooooOOOOOOOOOOOOOOOOOOOOOOOOOOOOOOOOOOOOOOXXXXXXXXXX",
"XXXXXXXXXXOOOOOOOOOOOOOOOOOOOOOOOOOOOOOOOOOOOOoooooo        ++            ++ooooOOOOOOOOOOOOOOOOOOOOOOOOOOOOOOOOOOOOOOXXXXXXXXXX",
"XXXXXXXXXXOOOOOOOO        OOOOOOOOOOOOOOOOOOOOoooo  ++++++      ++++++++  ++ooooOOOOOOOOOOOOOOOOOOOOOO        OOOOOOOOXXXXXXXXXX",
"XXXXXXXXXXOOOOOOOO        OOOOOOOOOOOOOOOOOOOOoooo  ++++++      ++++++++  ++ooooOOOOOOOOOOOOOOOOOOOOOO        OOOOOOOOXXXXXXXXXX",
"XXXXXXXXXXOOOOOOOO        OOOOOOOOOOOOOOOOOOOOoo++          ++            ++ooooOOOOOOOOOOOOOOOOOOOOOO        OOOOOOOOXXXXXXXXXX",
"XXXXXXXXXXOOOOOOOO        OOOOOOOOOOOOOOOOOOOOoo++          ++            ++ooooOOOOOOOOOOOOOOOOOOOOOO        OOOOOOOOXXXXXXXXXX",
"XXXXXXXXXXOOOOOOOO        OOOOOOOOOOOOOOOOOOOOoo++++++++++++++++++++++++++++ooOOOOOOOOOOOOOOOOOOOOOOOO        OOOOOOOOXXXXXXXXXX",
"XXXXXXXXXXOOOOOOOO        OOOOOOOOOOOOOOOOOOOOoo++++++++++++++++++++++++++++ooOOOOOOOOOOOOOOOOOOOOOOOO        OOOOOOOOXXXXXXXXXX",
"XXXXXXXXXXOOOOOOooooooooooooOOOOOOOOOOOOOOOOOOoo++++++++++++++++++++++++++++OOOOOOOOOOOOOOOOOOOOOOOOooooooooooooOOOOOOXXXXXXXXXX",
"XXXXXXXXXXOOOOOOooooooooooooOOOOOOOOOOOOOOOOOOoo++++++++++++++++++++++++++++OOOOOOOOOOOOOOOOOOOOOOOOooooooooooooOOOOOOXXXXXXXXXX",
"XXXXXXXXXXOOOOOOooooooooooooOOOOOOOOOOOOOOOOOOOO++++++++++        ++++++++++OOOOOOOOOOOOOOOOOOOOOOOOooooooooooooOOOOOOXXXXXXXXXX",
"XXXXXXXXXXOOOOOOooooooooooooOOOOOOOOOOOOOOOOOOOO++++++++++        ++++++++++OOOOOOOOOOOOOOOOOOOOOOOOooooooooooooOOOOOOXXXXXXXXXX",
"XXXXXXXXXXOOOOOOooooooooooooOOOOOOOOOOOOOOOOOOOO++++++++++++++++++++++++++++OOOOOOOOOOOOOOOOOOOOOOOOooooooooooooOOOOOOXXXXXXXXXX",
"XXXXXXXXXXOOOOOOooooooooooooOOOOOOOOOOOOOOOOOOOO++++++++++++++++++++++++++++OOOOOOOOOOOOOOOOOOOOOOOOooooooooooooOOOOOOXXXXXXXXXX",
"XXXXXXXXXXOOOOOOooooooooooooOOOOOOOOOOOOOOOOOOOO++++++++++++++++++++++++++++OOOOOOOOOOOOOOOOOOOOOOOOooooooooooooOOOOOOXXXXXXXXXX",
"XXXXXXXXXXOOOOOOooooooooooooOOOOOOOOOOOOOOOOOOOO++++++++++++++++++++++++++++OOOOOOOOOOOOOOOOOOOOOOOOooooooooooooOOOOOOXXXXXXXXXX",
"XXXXXXXXXXOOOOOOooooooooooooOOOOOOOOOOOOOOOOOOOO++++++++++++++++++++++++++++OOOOOOOOOOOOOOOOOOOOOOOOooooooooooooOOOOOOXXXXXXXXXX",
"XXXXXXXXXXOOOOOOooooooooooooOOOOOOOOOOOOOOOOOOOO++++++++++++++++++++++++++++OOOOOOOOOOOOOOOOOOOOOOOOooooooooooooOOOOOOXXXXXXXXXX",
"XXXXXXXXXXOOOOOOooooooooooooOOOOOOOOOOOOOOOOOOOOOOOOOOOOOOOOOOOOOOOOOOOOOOOOOOOOOOOOOOOOOOOOOOOOOOOOooooooooooooOOOOOOXXXXXXXXXX",
"XXXXXXXXXXOOOOOOooooooooooooOOOOOOOOOOOOOOOOOOOOOOOOOOOOOOOOOOOOOOOOOOOOOOOOOOOOOOOOOOOOOOOOOOOOOOOOooooooooooooOOOOOOXXXXXXXXXX",
"XXXXXXXXXXOOOOOOooooooooooooOOOOOOOOOOOOOOOOOOOOOOOOOOOOOOOOOOOOOOOOOOOOOOOOOOOOOOOOOOOOOOOOOOOOOOOOooooooooooooOOOOOOXXXXXXXXXX",
"XXXXXXXXXXOOOOOOooooooooooooOOOOOOOOOOOOOOOOOOOOOOOOOOOOOOOOOOOOOOOOOOOOOOOOOOOOOOOOOOOOOOOOOOOOOOOOooooooooooooOOOOOOXXXXXXXXXX",
"XXXXXXXXXXOOOOOOooooooooooooOOOOOOOOOOOOOOOOOOOOOOOOOOOOOOOOOOOOOOOOOOOOOOOOOOOOOOOOOOOOOOOOOOOOOOOOooooooooooooOOOOOOXXXXXXXXXX",
"XXXXXXXXXXOOOOOOooooooooooooOOOOOOOOOOOOOOOOOOOOOOOOOOOOOOOOOOOOOOOOOOOOOOOOOOOOOOOOOOOOOOOOOOOOOOOOooooooooooooOOOOOOXXXXXXXXXX",
"XXXXXXXXXXOOOOOOooooooooooooOOOOOOOOOOOOOOooooooooooooooooooooooooooooooooooooooooOOOOOOOOOOOOOOOOOOooooooooooooOOOOOOXXXXXXXXXX",
"XXXXXXXXXXOOOOOOooooooooooooOOOOOOOOOOOOOOooooooooooooooooooooooooooooooooooooooooOOOOOOOOOOOOOOOOOOooooooooooooOOOOOOXXXXXXXXXX",
"XXXXXXXXXXOOOOOOooooooooooooooooooooooooooooooooooooooooooooooooooooooooooooooooooooooooooooooooooooooooooooooooOOOOOOXXXXXXXXXX",
"XXXXXXXXXXOOOOOOooooooooooooooooooooooooooooooooooooooooooooooooooooooooooooooooooooooooooooooooooooooooooooooooOOOOOOXXXXXXXXXX",
"XXXXXXXXXXOOOOOOooooooooooooooooooooooooooooooooooooooooooooooooooooooooooooooooooooooooooooooooooooooooooooooooOOOOOOXXXXXXXXXX",
"XXXXXXXXXXOOOOOOooooooooooooooooooooooooooooooooooooooooooooooooooooooooooooooooooooooooooooooooooooooooooooooooOOOOOOXXXXXXXXXX",
"XXXXXXXXXXOOOOOOooooooooooooooooooooooooooooooooooooooooooooooooooooooooooooooooooooooooooooooooooooooooooooooooOOOOOOXXXXXXXXXX",
"XXXXXXXXXXOOOOOOooooooooooooooooooooooooooooooooooooooooooooooooooooooooooooooooooooooooooooooooooooooooooooooooOOOOOOXXXXXXXXXX",
"XXXXXXXXXXOOOOOOooooooooooooooooooooooooooooooooooooooooooooooooooooooooooooooooooooooooooooooooooooooooooooooooOOOOOOXXXXXXXXXX",
"XXXXXXXXXXOOOOOOooooooooooooooooooooooooooooooooooooooooooooooooooooooooooooooooooooooooooooooooooooooooooooooooOOOOOOXXXXXXXXXX",
"XXXXXXXXXXOOOOOOooooooooooooooooooooooooooooooooooooooooooooooooooooooooooooooooooooooooooooooooooooooooooooooooOOOOOOXXXXXXXXXX",
"XXXXXXXXXXOOOOOOooooooooooooooooooooooooooooooooooooooooooooooooooooooooooooooooooooooooooooooooooooooooooooooooOOOOOOXXXXXXXXXX",
"XXXXXXXXXXOOOOOOooooooooooooooooooooooooooooooooooooooooooooooooooooooooooooooooooooooooooooooooooooooooooooooooOOOOOOXXXXXXXXXX",
"XXXXXXXXXXOOOOOOooooooooooooooooooooooooooooooooooooooooooooooooooooooooooooooooooooooooooooooooooooooooooooooooOOOOOOXXXXXXXXXX",
"XXXXXXXXXXOOOOOOooooooooooooooooooooooooooooooooooooooooooooooooooooooooooooooooooooooooooooooooooooooooooooooooOOOOOOXXXXXXXXXX",
"XXXXXXXXXXOOOOOOooooooooooooooooooooooooooooooooooooooooooooooooooooooooooooooooooooooooooooooooooooooooooooooooOOOOOOXXXXXXXXXX",
"XXXXXXXXXXOOOOOOOOOOOO    OOOO      OOOOOO      oooo        oo  oooooo  oooo  oo          OO      OOOOOOOOOOOOOOOOOOOOXXXXXXXXXX",
"XXXXXXXXXXOOOOOOOOOOOO    OOOO      OOOOOO      oooo        oo  oooooo  oooo  oo          OO      OOOOOOOOOOOOOOOOOOOOXXXXXXXXXX",
"XXXXXXXXXXOOOOOOOOOO  OOOO  OO  OOOO  OO  oooooooooo  oooo  oo  oooooo  oooo  ooooOO  OOOOOO  OOOOOOOOOOOOOOOOOOOOOOOOXXXXXXXXXX",
"XXXXXXXXXXOOOOOOOOOO  OOOO  OO  OOOO  OO  oooooooooo  oooo  oo  oooooo  oooo  ooooOO  OOOOOO  OOOOOOOOOOOOOOOOOOOOOOOOXXXXXXXXXX",
"XXXXXXXXXXOOOOOOOOOO        OO      OOOOOO      oooo  oooo  oo  oooooo  oooo  ooooOO  OOOOOO      OOOOOOOOOOOOOOOOOOOOXXXXXXXXXX",
"XXXXXXXXXXOOOOOOOOOO        OO      OOOOOO      oooo  oooo  oo  oooooo  oooo  ooooOO  OOOOOO      OOOOOOOOOOOOOOOOOOOOXXXXXXXXXX",
"XXXXXXXXXXOOOOOOOOOO  OOOO  OO  OOOO  OOOOoooooo  oo  oooo  oo  oooooo  oooo  ooooOO  OOOOOO  OOOOOOOOOOOOOOOOOOOOOOOOXXXXXXXXXX",
"XXXXXXXXXXOOOOOOOOOO  OOOO  OO  OOOO  OOOOoooooo  oo  oooo  oo  oooooo  oooo  ooooOO  OOOOOO  OOOOOOOOOOOOOOOOOOOOOOOOXXXXXXXXXX",
"XXXXXXXXXXOOOOOOOOOO  OOOO  OO      OOOOOO      oooo        oo      oo        ooooOO  OOOOOO      OOOOOOOOOOOOOOOOOOOOXXXXXXXXXX",
"XXXXXXXXXXOOOOOOOOOO  OOOO  OO      OOOOOO      oooo        oo      oo        ooooOO  OOOOOO      OOOOOOOOOOOOOOOOOOOOXXXXXXXXXX",
"XXXXXXXXXXOOOOOOOOOOOOOOOOOOOOOOOOOOOOOOOOooooooooooooooooooooooooooooooooooooooooOOOOOOOOOOOOOOOOOOOOOOOOOOOOOOOOOOOOXXXXXXXXXX",
"XXXXXXXXXXOOOOOOOOOOOOOOOOOOOOOOOOOOOOOOOOooooooooooooooooooooooooooooooooooooooooOOOOOOOOOOOOOOOOOOOOOOOOOOOOOOOOOOOOXXXXXXXXXX",
"XXXXXXXXXXOOOOOOOOOOOOOOOOOOOOOOOOOOOOOOOOooooooooooooooooooooooooooooooooooooooooOOOOOOOOOOOOOOOOOOOOOOOOOOOOOOOOOOOOXXXXXXXXXX",
"XXXXXXXXXXOOOOOOOOOOOOOOOOOOOOOOOOOOOOOOOOooooooooooooooooooooooooooooooooooooooooOOOOOOOOOOOOOOOOOOOOOOOOOOOOOOOOOOOOXXXXXXXXXX",
"XXXXXXXXXXOOOOOO          OO        OO  OOoooo  oo        oo        oooo  oooooooo        OO  OOOOOO  OOOOOOOOOOOOOOOOXXXXXXXXXX",
"XXXXXXXXXXOOOOOO          OO        OO  OOoooo  oo        oo        oooo  oooooooo        OO  OOOOOO  OOOOOOOOOOOOOOOOXXXXXXXXXX",
"XXXXXXXXXXOOOOOO  OOOOOOOOOO  OOOO  OO    oo    oo  oooooooo  oooooo  oo  oooooooo  OOOO  OOOO  OO  OOOOOOOOOOOOOOOOOOXXXXXXXXXX",
"XXXXXXXXXXOOOOOO  OOOOOOOOOO  OOOO  OO    oo    oo  oooooooo  oooooo  oo  oooooooo  OOOO  OOOO  OO  OOOOOOOOOOOOOOOOOOXXXXXXXXXX",
"XXXXXXXXXXOOOOOO  OOOOOOOOOO  OOOO  OO  OO  oo  oo  oooooooo  oooooo  oo  oooooooo  OOOO  OOOOOO  OOOOOOOOOOOOOOOOOOOOXXXXXXXXXX",
"XXXXXXXXXXOOOOOO  OOOOOOOOOO  OOOO  OO  OO  oo  oo  oooooooo  oooooo  oo  oooooooo  OOOO  OOOOOO  OOOOOOOOOOOOOOOOOOOOXXXXXXXXXX",
"XXXXXXXXXXOOOOOO  OOOOOOOOOO  OOOO  OO  OOoooo  oo        oo  oooooo  oo  oooooooo  OOOO  OOOOOO  OOOOOOOOOOOOOOOOOOOOXXXXXXXXXX",
"XXXXXXXXXXOOOOOO  OOOOOOOOOO  OOOO  OO  OOoooo  oo        oo  oooooo  oo  oooooooo  OOOO  OOOOOO  OOOOOOOOOOOOOOOOOOOOXXXXXXXXXX",
"XXXXXXXXXXOOOOOO  OO      OO        OO  OOoooo  oo  oooooooo        oooo  oooooooo        OOOOOO  OOOOOOOOOOOOOOOOOOOOXXXXXXXXXX",
"XXXXXXXXXXOOOOOO  OO      OO        OO  OOoooo  oo  oooooooo        oooo  oooooooo        OOOOOO  OOOOOOOOOOOOOOOOOOOOXXXXXXXXXX",
"XXXXXXXXXXOOOOOO  OOOOOO  OO  OOOO  OO  OOoooo  oo  oooooooo  oooooooooo  oooooooo  OOOO  OOOOOO  OOOOOOOOOOOOOOOOOOOOXXXXXXXXXX",
"XXXXXXXXXXOOOOOO  OOOOOO  OO  OOOO  OO  OOoooo  oo  oooooooo  oooooooooo  oooooooo  OOOO  OOOOOO  OOOOOOOOOOOOOOOOOOOOXXXXXXXXXX",
"XXXXXXXXXXOOOOOO  OOOOOO  OO  OOOO  OO  OOoooo  oo  oooooooo  oooooooooo  oooooooo  OOOO  OOOOOO  OOOOOOOOOOOOOOOOOOOOXXXXXXXXXX",
"XXXXXXXXXXOOOOOO  OOOOOO  OO  OOOO  OO  OOoooo  oo  oooooooo  oooooooooo  oooooooo  OOOO  OOOOOO  OOOOOOOOOOOOOOOOOOOOXXXXXXXXXX",
"XXXXXXXXXXOOOOOO          OO  OOOO  OO  OOoooo  oo        oo  oooooooooo        oo  OOOO  OOOOOO  OOOOOOOOOOOOOOOOOOOOXXXXXXXXXX",
"XXXXXXXXXXOOOOOO          OO  OOOO  OO  OOoooo  oo        oo  oooooooooo        oo  OOOO  OOOOOO  OOOOOOOOOOOOOOOOOOOOXXXXXXXXXX",
"XXXXXXXXXXOOOOOOOOOOOOOOOOOOOOOOOOOOOOOOOOooooooooooooooooooooooooooooooooooooooooOOOOOOOOOOOOOOOOOOOOOOOOOOOOOOOOOOOOXXXXXXXXXX",
"XXXXXXXXXXOOOOOOOOOOOOOOOOOOOOOOOOOOOOOOOOooooooooooooooooooooooooooooooooooooooooOOOOOOOOOOOOOOOOOOOOOOOOOOOOOOOOOOOOXXXXXXXXXX",
"XXXXXXXXXXOOOOOOOOOOOOOOOOOOOOOOOOOOOOOOOOooooooooooooooooooooooooooooooooooooooooOOOOOOOOOOOOOOOOOOOOOOOOOOOOOOOOOOOOXXXXXXXXXX",
"XXXXXXXXXXOOOOOOOOOOOOOOOOOOOOOOOOOOOOOOOOooooooooooooooooooooooooooooooooooooooooOOOOOOOOOOOOOOOOOOOOOOOOOOOOOOOOOOOOXXXXXXXXXX",
"XXXXXXXXXXOOOOOOOOOOOOOOOOOOOOOOOOOOOOOOOOooooooooooooooooooooooooooooooooooooooooOOOOOOOOOOOOOOOOOOOOOOOOOOOOOOOOOOOOXXXXXXXXXX",
"XXXXXXXXXXOOOOOOOOOOOOOOOOOOOOOOOOOOOOOOOOooooooooooooooooooooooooooooooooooooooooOOOOOOOOOOOOOOOOOOOOOOOOOOOOOOOOOOOOXXXXXXXXXX",
"XXXXXXXXXXOOOOOOOOOOOOOOOOOOOOOOOOOOOOOOOOooooooooooooooooooooooooooooooooooooooooOOOOOOOOOOOOOOOOOOOOOOOOOOOOOOOOOOOOXXXXXXXXXX",
"XXXXXXXXXXOOOOOOOOOOOOOOOOOOOOOOOOOOOOOOOOooooooooooooooooooooooooooooooooooooooooOOOOOOOOOOOOOOOOOOOOOOOOOOOOOOOOOOOOXXXXXXXXXX",
"XXXXXXXXXXOOOOOOOOOOOOOOOOOOOOOOOOOOOOOOOOooooooooooooooooooooooooooooooooooooooooOOOOOOOOOOOOOOOOOOOOOOOOOOOOOOOOOOOOXXXXXXXXXX",
"XXXXXXXXXXOOOOOOOOOOOOOOOOOOOOOOOOOOOOOOOOooooooooooooooooooooooooooooooooooooooooOOOOOOOOOOOOOOOOOOOOOOOOOOOOOOOOOOOOXXXXXXXXXX",
"XXXXXXXXXXOOOOOOOOOOOOOOOOOOOOOOOOOOOOOOOOooooooooooooooooooooooooooooooooooooooooOOOOOOOOOOOOOOOOOOOOOOOOOOOOOOOOOOOOXXXXXXXXXX",
"XXXXXXXXXXOOOOOOOOOOOOOOOOOOOOOOOOOOOOOOOOooooooooooooooooooooooooooooooooooooooooOOOOOOOOOOOOOOOOOOOOOOOOOOOOOOOOOOOOXXXXXXXXXX",
"XXXXXXXXXXOOOOOOOOOOOOOOOOOOOOOOOOOOOOOOOOOOOOOOOOOOOOOOOOOOOOOOOOOOOOOOOOOOOOOOOOOOOOOOOOOOOOOOOOOOOOOOOOOOOOOOOOOOOOXXXXXXXXXX",
"XXXXXXXXXXOOOOOOOOOOOOOOOOOOOOOOOOOOOOOOOOOOOOOOOOOOOOOOOOOOOOOOOOOOOOOOOOOOOOOOOOOOOOOOOOOOOOOOOOOOOOOOOOOOOOOOOOOOOOXXXXXXXXXX",
"XXXXXXXXXXOOOOOOOOOOOOOOOOOOOOOOOOOOOOOOOOOOOOOOOOOOOOOOOOOOOOOOOOOOOOOOOOOOOOOOOOOOOOOOOOOOOOOOOOOOOOOOOOOOOOOOOOOOOOXXXXXXXXXX",
"XXXXXXXXXXOOOOOOOOOOOOOOOOOOOOOOOOOOOOOOOOOOOOOOOOOOOOOOOOOOOOOOOOOOOOOOOOOOOOOOOOOOOOOOOOOOOOOOOOOOOOOOOOOOOOOOOOOOOOXXXXXXXXXX",
"XXXXXXXXXXXXXXXXXXXXXXXXXXXXXXXXXXXXXXXXXXXXXXXXXXXXXXXXXXXXXXXXXXXXXXXXXXXXXXXXXXXXXXXXXXXXXXXXXXXXXXXXXXXXXXXXXXXXXXXXXXXXXXXX",
"XXXXXXXXXXXXXXXXXXXXXXXXXXXXXXXXXXXXXXXXXXXXXXXXXXXXXXXXXXXXXXXXXXXXXXXXXXXXXXXXXXXXXXXXXXXXXXXXXXXXXXXXXXXXXXXXXXXXXXXXXXXXXXXX",
"XXXXXXXXXXXXXXXXXXXXXXXXXXXXXXXXXXXXXXXXXXXXXXXXXXXXXXXXXXXXXXXXXXXXXXXXXXXXXXXXXXXXXXXXXXXXXXXXXXXXXXXXXXXXXXXXXXXXXXXXXXXXXXXX",
"XXXXXXXXXXXXXXXXXXXXXXXXXXXXXXXXXXXXXXXXXXXXXXXXXXXXXXXXXXXXXXXXXXXXXXXXXXXXXXXXXXXXXXXXXXXXXXXXXXXXXXXXXXXXXXXXXXXXXXXXXXXXXXXX",
"XXXXXXXXXXXXXXXXXXXXXXXXXXXXXXXXXXXXXXXXXXXXXXXXXXXXXXXXXXXXXXXXXXXXXXXXXXXXXXXXXXXXXXXXXXXXXXXXXXXXXXXXXXXXXXXXXXXXXXXXXXXXXXXX",
"XXXXXXXXXXXXXXXXXXXXXXXXXXXXXXXXXXXXXXXXXXXXXXXXXXXXXXXXXXXXXXXXXXXXXXXXXXXXXXXXXXXXXXXXXXXXXXXXXXXXXXXXXXXXXXXXXXXXXXXXXXXXXXXX",
"................................................................................................................................",
"................................................................................................................................"
};
