/* XPM */
static char *Wall4[] = {
/* columns rows colors chars-per-pixel */
"128 128 8 1 ",
"  c #1D2724",
". c #323C39",
"X c #2D463E",
"o c #AC3232",
"O c #DAD22C",
"+ c #FBF236",
"@ c #99E550",
"# c #306082",
/* pixels */
"                                                                                                                                ",
"                                                                                                                                ",
"XXXXXXXXXXXXXXXXXXXXXXXXXXXXXXXXXXXXXXXXXXXXXXXXXXXXXXXXXXXXXXXXXXXXXXXXXXXXXXXXXXXXXXXXXXXXXXXXXXXXXXXXXXXXXXXXXXXXXXXXXXXXXXXX",
"XXXXXXXXXXXXXXXXXXXXXXXXXXXXXXXXXXXXXXXXXXXXXXXXXXXXXXXXXXXXXXXXXXXXXXXXXXXXXXXXXXXXXXXXXXXXXXXXXXXXXXXXXXXXXXXXXXXXXXXXXXXXXXXX",
"XXXXXXXXXXXXXXXXXXXXXXXXXXXXXXXXXXXXXXXXXXXXXXXXXXXXXXXXXXXXXXXXXXXXXXXXXXXXXXXXXXXXXXXXXXXXXXXXXXXXXXXXXXXXXXXXXXXXXXXXXXXXXXXX",
"XXXXXXXXXXXXXXXXXXXXXXXXXXXXXXXXXXXXXXXXXXXXXXXXXXXXXXXXXXXXXXXXXXXXXXXXXXXXXXXXXXXXXXXXXXXXXXXXXXXXXXXXXXXXXXXXXXXXXXXXXXXXXXXX",
"XXXXXXXXXXXXXXXXXXXXXXXXXXXXXXXXXXXXXXXXXXXXXXXXXXXXXXXXXXXXXXXXXXXXXXXXXXXXXXXXXXXXXXXXXXXXXXXXXXXXXXXXXXXXXXXXXXXXXXXXXXXXXXXX",
"XXXXXXXXXXXXXXXXXXXXXXXXXXXXXXXXXXXXXXXXXXXXXXXXXXXXXXXXXXXXXXXXXXXXXXXXXXXXXXXXXXXXXXXXXXXXXXXXXXXXXXXXXXXXXXXXXXXXXXXXXXXXXXXX",
"XXXXXXXXXXXXXXXXXXXXXXXXXXXXXXXXXXXXXXXXXXXXXXXXXXXXXXXXXXXXXXXXXXXXXXXXXXXXXXXXXXXXXXXXXXXXXXXXXXXXXXXXXXXXXXXXXXXXXXXXXXXXXXXX",
"XXXXXXXXXXXXXXXXXXXXXXXXXXXXXXXXXXXXXXXXXXXXXXXXXXXXXXXXXXXXXXXXXXXXXXXXXXXXXXXXXXXXXXXXXXXXXXXXXXXXXXXXXXXXXXXXXXXXXXXXXXXXXXXX",
"XXXXXXXXXXXXXXXXXXXXXXXXXXXXXXXXXXXXXXXXXXXXXXXXXXXXXXXXXXXXXXXXXXXXXXXXXXXXXXXXXXXXXXXXXXXXXXXXXXXXXXXXXXXXXXXXXXXXXXXXXXXXXXXX",
"XXXXXXXXXXXXXXXXXXXXXXXXXXXXXXXXXXXXXXXXXXXXXXXXXXXXXXXXXXXXXXXXXXXXXXXXXXXXXXXXXXXXXXXXXXXXXXXXXXXXXXXXXXXXXXXXXXXXXXXXXXXXXXXX",
"XXXXXX                                                              XXXXXX                                                  XXXX",
"XXXXXX                                                              XXXXXX                                                  XXXX",
"XXXXXX  XXXXXXXXXXXXXXXXXXXXXXXXXXXXXXXXXXXXXXXXXXXXXXXXXXXXXXXXXX  XXXXXX  XXXXXXXXXXXXXXXXXXXXXXXXXXXXXXXXXXXXXXXXXXXXXX  XXXX",
"XXXXXX  XXXXXXXXXXXXXXXXXXXXXXXXXXXXXXXXXXXXXXXXXXXXXXXXXXXXXXXXXX  XXXXXX  XXXXXXXXXXXXXXXXXXXXXXXXXXXXXXXXXXXXXXXXXXXXXX  XXXX",
"XXXXXX  XXXXXXXXXXXXXXXXXXXXXXXXXXXXXXXXXXXXXXXXXXXXXXXXXXXXXXXXXX  XXXXXX  XXXXXXXXXXXXXXXXXXXXXXXXXXXXXXXXXXXXXXXXXXXXXX  XXXX",
"XXXXXX  XXXXXXXXXXXXXXXXXXXXXXXXXXXXXXXXXXXXXXXXXXXXXXXXXXXXXXXXXX  XXXXXX  XXXXXXXXXXXXXXXXXXXXXXXXXXXXXXXXXXXXXXXXXXXXXX  XXXX",
"XXXXXX  XXXXXXXXXXXXXXXXXXXXXXXXXXXXXXXXXXXXXXXXXXXXXXXXXXXXXXXXXX  XXXXXX  XXXXXXXXXXXXXXXXXXXXXXXXXXXXXXXXXXXXXXXXXXXXXX  XXXX",
"XXXXXX  XXXXXXXXXXXXXXXXXXXXXXXXXXXXXXXXXXXXXXXXXXXXXXXXXXXXXXXXXX  XXXXXX  XXXXXXXXXXXXXXXXXXXXXXXXXXXXXXXXXXXXXXXXXXXXXX  XXXX",
"XXXXXX  XXXX                                                XXXXXX  XXXXXX  XXXX                                      XXXX  XXXX",
"XXXXXX  XXXX                                                XXXXXX  XXXXXX  XXXX                                      XXXX  XXXX",
"XXXXXX  XXXX  ............................................  XXXXXX  XXXXXX  XXXX  XXXXXXXXXXXXXXXXXXXXXXXXXXXXXXXXXX  XXXX  XXXX",
"XXXXXX  XXXX  ............................................  XXXXXX  XXXXXX  XXXX  XXXXXXXXXXXXXXXXXXXXXXXXXXXXXXXXXX  XXXX  XXXX",
"XXXXXX  XXXX  ............................................  XXXXXX  XXXXXX  XXXX  XXXXXXXXXXXXXXXXXXXXXXXXXXXXXXXXXX  XXXX  XXXX",
"XXXXXX  XXXX  ............................................  XXXXXX  XXXXXX  XXXX  XXXXXXXXXXXXXXXXXXXXXXXXXXXXXXXXXX  XXXX  XXXX",
"XXXXXX  XXXX  ............................................  XXXXXX  XXXXXX  XXXX  XXXXXXXXXXXXXXXXXXXXXXXXXXXXXXXXXX  XXXX  XXXX",
"XXXXXX  XXXX  ............................................  XXXXXX  XXXXXX  XXXX  XXXXXXXXXXXXXXXXXXXXXXXXXXXXXXXXXX  XXXX  XXXX",
"XXXXXX  XXXX  ............................................  XXXXXX  XXXXXX  XXXX  XXXXXXXXXXXXXXXXXXXXXXXXXXXXXXXXXX  XXXX  XXXX",
"XXXXXX  XXXX  ............................................  XXXXXX  XXXXXX  XXXX  XXXXXXXXXXXXXXXXXXXXXXXXXXXXXXXXXX  XXXX  XXXX",
"XXXXXX  XXXX                                                XXXXXX  XXXXXX  XXXX  XXXXXXXXXXXXXXXXXXXXXXXXXXXXXXXXXX  XXXX  XXXX",
"XXXXXX  XXXX                                                XXXXXX  XXXXXX  XXXX  XXXXXXXXXXXXXXXXXXXXXXXXXXXXXXXXXX  XXXX  XXXX",
"XXXXXX  XXXXXXXXXXXXXXXXXXXXXXXXXXXXXXXXXXXXXXXXXXXXXXXXXXXXXXXXXX  XXXXXX  XXXX  XXXXXXXXXXXXXXOOOOXXXXXXXXXXXXXXXX  XXXX  XXXX",
"XXXXXX  XXXXXXXXXXXXXXXXXXXXXXXXXXXXXXXXXXXXXXXXXXXXXXXXXXXXXXXXXX  XXXXXX  XXXX  XXXXXXXXXXXXXXOOOOXXXXXXXXXXXXXXXX  XXXX  XXXX",
"XXXXXX  XXXXXXXXXXXXXXXXXXXXXXXXXXXXXXXXXXXXXXXXXXXXXXXXXXXXXXXXXX  XXXXXX  XXXX  XXXXXXXXXXXXOO++++OOXXXXXXXXXXXXXX  XXXX  XXXX",
"XXXXXX  XXXXXXXXXXXXXXXXXXXXXXXXXXXXXXXXXXXXXXXXXXXXXXXXXXXXXXXXXX  XXXXXX  XXXX  XXXXXXXXXXXXOO++++OOXXXXXXXXXXXXXX  XXXX  XXXX",
"XXXXXX  XXXX                                                XXXXXX  XXXXXX  XXXX  XXXXXXXXXXOO++++++++OOXXXXXXXXXXXX  XXXX  XXXX",
"XXXXXX  XXXX                                                XXXXXX  XXXXXX  XXXX  XXXXXXXXXXOO++++++++OOXXXXXXXXXXXX  XXXX  XXXX",
"XXXXXX  XXXX  ............................................  XXXXXX  XXXXXX  XXXX  XXXXXXXXOO++++oooo++++OOXXXXXXXXXX  XXXX  XXXX",
"XXXXXX  XXXX  ............................................  XXXXXX  XXXXXX  XXXX  XXXXXXXXOO++++oooo++++OOXXXXXXXXXX  XXXX  XXXX",
"XXXXXX  XXXX  ............................................  XXXXXX  XXXXXX  XXXX  XXXXXXOO++++++oooo++++++OOXXXXXXXX  XXXX  XXXX",
"XXXXXX  XXXX  ............................................  XXXXXX  XXXXXX  XXXX  XXXXXXOO++++++oooo++++++OOXXXXXXXX  XXXX  XXXX",
"XXXXXX  XXXX  ............................................  XXXXXX  XXXXXX  XXXX  XXXXOO++++++++oooo++++++++OOXXXXXX  XXXX  XXXX",
"XXXXXX  XXXX  ............................................  XXXXXX  XXXXXX  XXXX  XXXXOO++++++++oooo++++++++OOXXXXXX  XXXX  XXXX",
"XXXXXX  XXXX  ............................................  XXXXXX  XXXXXX  XXXX  XXOO++++++++++++++++++++++++OOXXXX  XXXX  XXXX",
"XXXXXX  XXXX  ............................................  XXXXXX  XXXXXX  XXXX  XXOO++++++++++++++++++++++++OOXXXX  XXXX  XXXX",
"XXXXXX  XXXX                                                XXXXXX  XXXXXX  XXXX  XXOO++++++++++oooo++++++++++OOXXXX  XXXX  XXXX",
"XXXXXX  XXXX                                                XXXXXX  XXXXXX  XXXX  XXOO++++++++++oooo++++++++++OOXXXX  XXXX  XXXX",
"XXXXXX  XXXXXXXXXXXXXXXXXXXXXXXXXXXXXXXXXXXXXXXXXXXXXXXXXXXXXXXXXX  XXXXXX  XXXX  XXXXOOOOOOOOOOOOOOOOOOOOOOOOXXXXXX  XXXX  XXXX",
"XXXXXX  XXXXXXXXXXXXXXXXXXXXXXXXXXXXXXXXXXXXXXXXXXXXXXXXXXXXXXXXXX  XXXXXX  XXXX  XXXXOOOOOOOOOOOOOOOOOOOOOOOOXXXXXX  XXXX  XXXX",
"XXXXXX  XXXX                                                XXXXXX  XXXXXX  XXXX  XXXXXXXXXXXXXXXXXXXXXXXXXXXXXXXXXX  XXXX  XXXX",
"XXXXXX  XXXX                                                XXXXXX  XXXXXX  XXXX  XXXXXXXXXXXXXXXXXXXXXXXXXXXXXXXXXX  XXXX  XXXX",
"XXXXXX  XXXX  ............................................  XXXXXX  XXXXXX  XXXX  XXXXXXXXXXXXXXXXXXXXXXXXXXXXXXXXXX  XXXX  XXXX",
"XXXXXX  XXXX  ............................................  XXXXXX  XXXXXX  XXXX  XXXXXXXXXXXXXXXXXXXXXXXXXXXXXXXXXX  XXXX  XXXX",
"XXXXXX  XXXX  ............................................  XXXXXX  XXXXXX  XXXX  XXXXXXXXXXXXXXXXXXXXXXXXXXXXXXXXXX  XXXX  XXXX",
"XXXXXX  XXXX  ............................................  XXXXXX  XXXXXX  XXXX  XXXXXXXXXXXXXXXXXXXXXXXXXXXXXXXXXX  XXXX  XXXX",
"XXXXXX  XXXX  ............................................  XXXXXX  XXXXXX  XXXX  XXXXXXXXXXXXXXXXXXXXXXXXXXXXXXXXXX  XXXX  XXXX",
"XXXXXX  XXXX  ............................................  XXXXXX  XXXXXX  XXXX  XXXXXXXXXXXXXXXXXXXXXXXXXXXXXXXXXX  XXXX  XXXX",
"XXXXXX  XXXX  ............................................  XXXXXX  XXXXXX  XXXX  XXXXXXXXXXXXXXXXXXXXXXXXXXXXXXXXXX  XXXX  XXXX",
"XXXXXX  XXXX  ............................................  XXXXXX  XXXXXX  XXXX  XXXXXXXXXXXXXXXXXXXXXXXXXXXXXXXXXX  XXXX  XXXX",
"XXXXXX  XXXX                                                XXXXXX  XXXXXX  XXXX  XXXXXXXXXXXXXXXXXXXXXXXXXXXXXXXXXX  XXXX  XXXX",
"XXXXXX  XXXX                                                XXXXXX  XXXXXX  XXXX  XXXXXXXXXXXXXXXXXXXXXXXXXXXXXXXXXX  XXXX  XXXX",
"XXXXXX  XXXXXXXXXXXXXXXXXXXXXXXXXXXXXXXXXXXXXXXXXXXXXXXXXXXXXXXXXX  XXXXXX  XXXX  XXXXXXXXXXXXXXXXXXXXXXXXXXXXXXXXXX  XXXX  XXXX",
"XXXXXX  XXXXXXXXXXXXXXXXXXXXXXXXXXXXXXXXXXXXXXXXXXXXXXXXXXXXXXXXXX  XXXXXX  XXXX  XXXXXXXXXXXXXXXXXXXXXXXXXXXXXXXXXX  XXXX  XXXX",
"XXXXXX  XXXXXXXXXXXXXXXXXXXXXXXXXXXXXXXXXXXXXXXXXXXXXXXXXXXXXXXXXX  XXXXXX  XXXX  XXXXXXXXXXXXXXXXXXXXXXXXXXXXXXXXXX  XXXX  XXXX",
"XXXXXX  XXXXXXXXXXXXXXXXXXXXXXXXXXXXXXXXXXXXXXXXXXXXXXXXXXXXXXXXXX  XXXXXX  XXXX  XXXXXXXXXXXXXXXXXXXXXXXXXXXXXXXXXX  XXXX  XXXX",
"XXXXXX  XXXX                                                XXXXXX  XXXXXX  XXXX  XXXXXXXXXXXXXXXXXXXXXXXXXXXXXXXXXX  XXXX  XXXX",
"XXXXXX  XXXX                                                XXXXXX  XXXXXX  XXXX  XXXXXXXXXXXXXXXXXXXXXXXXXXXXXXXXXX  XXXX  XXXX",
"XXXXXX  XXXX  ............................................  XXXXXX  XXXXXX  XXXX  XXXXXXXXXXXXXXXXXXXXXXXXXXXXXXXXXX  XXXX  XXXX",
"XXXXXX  XXXX  ............................................  XXXXXX  XXXXXX  XXXX  XXXXXXXXXXXXXXXXXXXXXXXXXXXXXXXXXX  XXXX  XXXX",
"XXXXXX  XXXX  ............................................  XXXXXX  XXXXXX  XXXX  XXXXXXXXXXXXXXXXXXXXXXXXXXXXXXXXXX  XXXX  XXXX",
"XXXXXX  XXXX  ............................................  XXXXXX  XXXXXX  XXXX  XXXXXXXXXXXXXXXXXXXXXXXXXXXXXXXXXX  XXXX  XXXX",
"XXXXXX  XXXX  ............................................  XXXXXX  XXXXXX  XXXX  XXXXXXXXXXXXXXXXXXXXXXXXXXXXXXXXXX  XXXX  XXXX",
"XXXXXX  XXXX  ............................................  XXXXXX  XXXXXX  XXXX  XXXXXXXXXXXXXXXXXXXXXXXXXXXXXXXXXX  XXXX  XXXX",
"XXXXXX  XXXX                                                XXXXXX  XXXXXX  XXXX  XXXXXXXXXXXXXXXXXXXXXXXXXXXXXXXXXX  XXXX  XXXX",
"XXXXXX  XXXX                                                XXXXXX  XXXXXX  XXXX  XXXXXXXXXXXXXXXXXXXXXXXXXXXXXXXXXX  XXXX  XXXX",
"XXXXXX  XXXXXXXXXXXXXXXXXXXXXXXXXXXXXXXXXXXXXXXXXXXXXXXXXXXXXXXXXX  XXXXXX  XXXX  XXXXXXXXXXXXXXXXXXXXXXXXXXXXXXXXXX  XXXX  XXXX",
"XXXXXX  XXXXXXXXXXXXXXXXXXXXXXXXXXXXXXXXXXXXXXXXXXXXXXXXXXXXXXXXXX  XXXXXX  XXXX  XXXXXXXXXXXXXXXXXXXXXXXXXXXXXXXXXX  XXXX  XXXX",
"XXXXXX  XXXXXXXXXXXXXXXXXXXXXXXXXXXXXXXXXXXXXXXXXXXXXXXXXXXXXXXXXX  XXXXXX  XXXX  XXXXXXXXXXXXXXXXXXXXXXXXXXXXXXXXXX  XXXX  XXXX",
"XXXXXX  XXXXXXXXXXXXXXXXXXXXXXXXXXXXXXXXXXXXXXXXXXXXXXXXXXXXXXXXXX  XXXXXX  XXXX  XXXXXXXXXXXXXXXXXXXXXXXXXXXXXXXXXX  XXXX  XXXX",
"XXXXXX  XXXXXXXXXXXXXXXXXXXXXXXXXXXXXXXXXXXXXXXXXXXXXXXXXXXXXXXXXX  XXXXXX  XXXX  XXXXXXXXXXXXXXXXXXXXXXXXXXXXXXXXXX  XXXX  XXXX",
"XXXXXX  XXXXXXXXXXXXXXXXXXXXXXXXXXXXXXXXXXXXXXXXXXXXXXXXXXXXXXXXXX  XXXXXX  XXXX  XXXXXXXXXXXXXXXXXXXXXXXXXXXXXXXXXX  XXXX  XXXX",
"XXXXXX  XXXX                                                XXXXXX  XXXXXX  XXXX                                      XXXX  XXXX",
"XXXXXX  XXXX                                                XXXXXX  XXXXXX  XXXX                                      XXXX  XXXX",
"XXXXXX  XXXX  ............................................  XXXXXX  XXXXXX  XXXXXXXXXXXXXXXXXXXXXXXXXXXXXXXXXXXXXXXXXXXXXX  XXXX",
"XXXXXX  XXXX  ............................................  XXXXXX  XXXXXX  XXXXXXXXXXXXXXXXXXXXXXXXXXXXXXXXXXXXXXXXXXXXXX  XXXX",
"XXXXXX  XXXX  ............................................  XXXXXX  XXXXXX  XXXXXXXXXXXXXXXXXXXXXXXXXXXXXXXXXXXXXXXXXXXXXX  XXXX",
"XXXXXX  XXXX  ............................................  XXXXXX  XXXXXX  XXXXXXXXXXXXXXXXXXXXXXXXXXXXXXXXXXXXXXXXXXXXXX  XXXX",
"XXXXXX  XXXX  ............................................  XXXXXX  XXXXXX  XXXXXXXXXXXXXXXXXXXXXXXXXXXXXXXXXXXXXXXXXXXXXX  XXXX",
"XXXXXX  XXXX  ............................................  XXXXXX  XXXXXX  XXXXXXXXXXXXXXXXXXXXXXXXXXXXXXXXXXXXXXXXXXXXXX  XXXX",
"XXXXXX  XXXX  ............................................  XXXXXX  XXXXXX                                                  XXXX",
"XXXXXX  XXXX  ............................................  XXXXXX  XXXXXX                                                  XXXX",
"XXXXXX  XXXX  ............................................  XXXXXX  XXXXXXXXXXXXXXXXXXXXXXXXXXXXXXXXXXXXXXXXXXXXXXXXXXXXXXXXXXXX",
"XXXXXX  XXXX  ............................................  XXXXXX  XXXXXXXXXXXXXXXXXXXXXXXXXXXXXXXXXXXXXXXXXXXXXXXXXXXXXXXXXXXX",
"XXXXXX  XXXX  ............................................  XXXXXX  XXXXXX                                                  XXXX",
"XXXXXX  XXXX  ............................................  XXXXXX  XXXXXX                                                  XXXX",
"XXXXXX  XXXX  ............................................  XXXXXX  XXXXXX  XXXXXXXXXXXXXXXXXXXXXXXXXXXXXXXXXXXXXXXXXXXXXX  XXXX",
"XXXXXX  XXXX  ............................................  XXXXXX  XXXXXX  XXXXXXXXXXXXXXXXXXXXXXXXXXXXXXXXXXXXXXXXXXXXXX  XXXX",
"XXXXXX  XXXX  ............................................  XXXXXX  XXXXXX  XXXXXXXXXXXXXXXXXXXXXXXXXXXXXXXXXXXXXXXXXXXXXX  XXXX",
"XXXXXX  XXXX  ............................................  XXXXXX  XXXXXX  XXXXXXXXXXXXXXXXXXXXXXXXXXXXXXXXXXXXXXXXXXXXXX  XXXX",
"XXXXXX  XXXX  ............................................  XXXXXX  XXXXXX  XXXX        XXXX        XXXX        XXXXXXXXXX  XXXX",
"XXXXXX  XXXX  ............................................  XXXXXX  XXXXXX  XXXX        XXXX        XXXX        XXXXXXXXXX  XXXX",
"XXXXXX  XXXX  ............................................  XXXXXX  XXXXXX  XXXX  oooo  XXXX  @@@@  XXXX  ####  XXXXXXXXXX  XXXX",
"XXXXXX  XXXX  ............................................  XXXXXX  XXXXXX  XXXX  oooo  XXXX  @@@@  XXXX  ####  XXXXXXXXXX  XXXX",
"XXXXXX  XXXX  ............................................  XXXXXX  XXXXXX  XXXX  oooo  XXXX  @@@@  XXXX  ####  XXXXXXXXXX  XXXX",
"XXXXXX  XXXX  ............................................  XXXXXX  XXXXXX  XXXX  oooo  XXXX  @@@@  XXXX  ####  XXXXXXXXXX  XXXX",
"XXXXXX  XXXX  ............................................  XXXXXX  XXXXXX  XXXX  oooo  XXXX  @@@@  XXXX  ####  XXXXXXXXXX  XXXX",
"XXXXXX  XXXX  ............................................  XXXXXX  XXXXXX  XXXX  oooo  XXXX  @@@@  XXXX  ####  XXXXXXXXXX  XXXX",
"XXXXXX  XXXX  ............................................  XXXXXX  XXXXXX  XXXX  oooo  XXXX  @@@@  XXXX  ####  XXXXXXXXXX  XXXX",
"XXXXXX  XXXX  ............................................  XXXXXX  XXXXXX  XXXX  oooo  XXXX  @@@@  XXXX  ####  XXXXXXXXXX  XXXX",
"XXXXXX  XXXX                                                XXXXXX  XXXXXX  XXXX        XXXX        XXXX        XXXXXXXXXX  XXXX",
"XXXXXX  XXXX                                                XXXXXX  XXXXXX  XXXX        XXXX        XXXX        XXXXXXXXXX  XXXX",
"XXXXXX  XXXXXXXXXXXXXXXXXXXXXXXXXXXXXXXXXXXXXXXXXXXXXXXXXXXXXXXXXX  XXXXXX  XXXXXXXXXXXXXXXXXXXXXXXXXXXXXXXXXXXXXXXXXXXXXX  XXXX",
"XXXXXX  XXXXXXXXXXXXXXXXXXXXXXXXXXXXXXXXXXXXXXXXXXXXXXXXXXXXXXXXXX  XXXXXX  XXXXXXXXXXXXXXXXXXXXXXXXXXXXXXXXXXXXXXXXXXXXXX  XXXX",
"XXXXXX                                                              XXXXXX                                                  XXXX",
"XXXXXX                                                              XXXXXX                                                  XXXX",
"XXXXXXXXXXXXXXXXXXXXXXXXXXXXXXXXXXXXXXXXXXXXXXXXXXXXXXXXXXXXXXXXXXXXXXXXXXXXXXXXXXXXXXXXXXXXXXXXXXXXXXXXXXXXXXXXXXXXXXXXXXXXXXXX",
"XXXXXXXXXXXXXXXXXXXXXXXXXXXXXXXXXXXXXXXXXXXXXXXXXXXXXXXXXXXXXXXXXXXXXXXXXXXXXXXXXXXXXXXXXXXXXXXXXXXXXXXXXXXXXXXXXXXXXXXXXXXXXXXX",
"XXXXXXXXXXXXXXXXXXXXXXXXXXXXXXXXXXXXXXXXXXXXXXXXXXXXXXXXXXXXXXXXXXXXXXXXXXXXXXXXXXXXXXXXXXXXXXXXXXXXXXXXXXXXXXXXXXXXXXXXXXXXXXXX",
"XXXXXXXXXXXXXXXXXXXXXXXXXXXXXXXXXXXXXXXXXXXXXXXXXXXXXXXXXXXXXXXXXXXXXXXXXXXXXXXXXXXXXXXXXXXXXXXXXXXXXXXXXXXXXXXXXXXXXXXXXXXXXXXX",
"XXXXXXXXXXXXXXXXXXXXXXXXXXXXXXXXXXXXXXXXXXXXXXXXXXXXXXXXXXXXXXXXXXXXXXXXXXXXXXXXXXXXXXXXXXXXXXXXXXXXXXXXXXXXXXXXXXXXXXXXXXXXXXXX",
"XXXXXXXXXXXXXXXXXXXXXXXXXXXXXXXXXXXXXXXXXXXXXXXXXXXXXXXXXXXXXXXXXXXXXXXXXXXXXXXXXXXXXXXXXXXXXXXXXXXXXXXXXXXXXXXXXXXXXXXXXXXXXXXX",
"XXXXXXXXXXXXXXXXXXXXXXXXXXXXXXXXXXXXXXXXXXXXXXXXXXXXXXXXXXXXXXXXXXXXXXXXXXXXXXXXXXXXXXXXXXXXXXXXXXXXXXXXXXXXXXXXXXXXXXXXXXXXXXXX",
"XXXXXXXXXXXXXXXXXXXXXXXXXXXXXXXXXXXXXXXXXXXXXXXXXXXXXXXXXXXXXXXXXXXXXXXXXXXXXXXXXXXXXXXXXXXXXXXXXXXXXXXXXXXXXXXXXXXXXXXXXXXXXXXX",
"XXXXXXXXXXXXXXXXXXXXXXXXXXXXXXXXXXXXXXXXXXXXXXXXXXXXXXXXXXXXXXXXXXXXXXXXXXXXXXXXXXXXXXXXXXXXXXXXXXXXXXXXXXXXXXXXXXXXXXXXXXXXXXXX",
"XXXXXXXXXXXXXXXXXXXXXXXXXXXXXXXXXXXXXXXXXXXXXXXXXXXXXXXXXXXXXXXXXXXXXXXXXXXXXXXXXXXXXXXXXXXXXXXXXXXXXXXXXXXXXXXXXXXXXXXXXXXXXXXX",
"                                                                                                                                ",
"                                                                                                                                "
};
