/* XPM */
static char *Wall1[] = {
/* columns rows colors chars-per-pixel */
"128 128 2 1 ",
"  c #1D2724",
". c #2D463E",
/* pixels */
"                                                                                                                                ",
"                                                                                                                                ",
"..............................................................................    ..............................................",
"..............................................................................    ..............................................",
"..............................................................................    ..............................................",
"..............................................................................    ..............................................",
"..............................................................................    ..                              ..............",
"..............................................................................    ..                              ..............",
"..............................................................................    ..  ..........................  ..............",
"..............................................................................    ..  ..........................  ..............",
"..............................................................................    ..  ..  ..................  ..  ..............",
"..............................................................................    ..  ..  ..................  ..  ..............",
"..............................................................................    ..  ..........................  ..............",
"..............................................................................    ..  ..........................  ..............",
"..............................................................................    ..  ..........................  ..............",
"..............................................................................    ..  ..........................  ..............",
"..............................................................................    ..  ..........................  ..............",
"..............................................................................    ..  ..........................  ..............",
"..............................................................................    ..  ..........................  ..............",
"..............................................................................    ..  ..........................  ..............",
"..............................................................................    ..  ..........................  ..............",
"..............................................................................    ..  ..........................  ..............",
"..............................................................................    ..  ..........................  ..............",
"..............................................................................    ..  ..........................  ..............",
"..............................................................................    ..  ..........................  ..............",
"..............................................................................    ..  ..........................  ..............",
"..............................................................................    ..  ..    ....................  ..............",
"..............................................................................    ..  ..    ....................  ..............",
"..............................................................................    ..  ..........................  ..............",
"..............................................................................    ..  ..........................  ..............",
"..............................................................................    ..  ..........................  ..............",
"..............................................................................    ..  ..........................  ..............",
"..............................................................................    ..  ..........................  ..............",
"..............................................................................    ..  ..........................  ..............",
"..............................................................................    ..  ..........................  ..............",
"..............................................................................    ..  ..........................  ..............",
"..............................................................................    ..  ..........................  ..............",
"..............................................................................    ..  ..........................  ..............",
"..............................................................................    ..  ..........................  ..............",
"..............................................................................    ..  ..........................  ..............",
"..............................................................................    ..  ..  ..................  ..  ..............",
"..............................................................................    ..  ..  ..................  ..  ..............",
"..............................................................................    ..  ..........................  ..............",
"..............................................................................    ..  ..........................  ..............",
"..............................................................................    ..                              ..............",
"..............................................................................    ..                              ..............",
"..............................................................................    ..............................................",
"..............................................................................    ..............................................",
"..............................................................................    ..............................................",
"..............................................................................    ..............................................",
"..............................................................................    ..............................................",
"..............................................................................    ..............................................",
"..............................................................................    ..............................................",
"..............................................................................    ..............................................",
"..............................................................................    ..............................................",
"..............................................................................    ..............................................",
"..............................................................................    ..............................................",
"..............................................................................    ..............................................",
"..............................................................................    ..............................................",
"..............................................................................    ..............................................",
"..............................................................................    ..............................................",
"..............................................................................    ..............................................",
"..............................................................................    ..............................................",
"..............................................................................    ..............................................",
"..............................................................................    ..............................................",
"..............................................................................    ..............................................",
"..............................................................................    ..............................................",
"..............................................................................    ..............................................",
"..............................................................................    ..............................................",
"..............................................................................    ..............................................",
"..............................................................................    ..............................................",
"..............................................................................    ..............................................",
"..............................................................................    ..............................................",
"..............................................................................    ..............................................",
"..............................................................................    ..............................................",
"..............................................................................    ..............................................",
"..                                                                        ....    ..............................................",
"..                                                                        ....    ..............................................",
"..  ....................................................................  ....    ..............................................",
"..  ....................................................................  ....    ..............................................",
"..  ..                                                                ..  ....    ..............................................",
"..  ..                                                                ..  ....    ..............................................",
"..  ....................................................................  ....    ..............................................",
"..  ....................................................................  ....    ..............................................",
"..  ..                                                                ..  ....    ..............................................",
"..  ..                                                                ..  ....    ..............................................",
"..  ....................................................................  ....    ..............................................",
"..  ....................................................................  ....    ..............................................",
"..  ..                                                                ..  ....    ..............................................",
"..  ..                                                                ..  ....    ..............................................",
"..  ....................................................................  ....    ..............................................",
"..  ....................................................................  ....    ..............................................",
"..  ..                                                                ..  ....    ..............................................",
"..  ..                                                                ..  ....    ..............................................",
"..  ....................................................................  ....    ..............................................",
"..  ....................................................................  ....    ..............................................",
"..                                                                        ....    ..............................................",
"..                                                                        ....    ..............................................",
"..............................................................................    ..............................................",
"..............................................................................    ..............................................",
"..............................................................................    ..............................................",
"..............................................................................    ..............................................",
"..............................................................................    ..............................................",
"..............................................................................    ..............................................",
"..............................................................................    ..............................................",
"..............................................................................    ..............................................",
"..............................................................................    ..............................................",
"..............................................................................    ..............................................",
"..............................................................................    ..............................................",
"..............................................................................    ..............................................",
"..............................................................................    ..............................................",
"..............................................................................    ..............................................",
"..............................................................................    ..............................................",
"..............................................................................    ..............................................",
"..............................................................................    ..............................................",
"..............................................................................    ..............................................",
"..............................................................................    ..............................................",
"..............................................................................    ..............................................",
"..............................................................................    ..............................................",
"..............................................................................    ..............................................",
"..............................................................................    ..............................................",
"..............................................................................    ..............................................",
"..............................................................................    ..............................................",
"..............................................................................    ..............................................",
"..............................................................................    ..............................................",
"..............................................................................    ..............................................",
"                                                                                                                                ",
"                                                                                                                                "
};
