/* XPM */
static char *Wall2[] = {
/* columns rows colors chars-per-pixel */
"128 128 6 1 ",
"  c #1D2724",
". c #2D463E",
"X c #464444",
"o c #595652",
"O c #99E550",
"+ c #847E87",
/* pixels */
"                                                                                                                                ",
"                                                                                                                                ",
"..............................................................................  ................................................",
"..............................................................................  ................................................",
"..............................................................................  ................................................",
"..............................................................................  ................................................",
"..............................................................................  ................................................",
"..............................................................................  ................................................",
"..............................................................................  ................................................",
"..............................................................................  ................................................",
"..............................................................................  ................................................",
"..............................................................................  ................................................",
"..............................................................................  ................................................",
"..............................................................................  ................................................",
"..............................................................................  ................................................",
"..............................................................................  ................................................",
"..............................................................................  ................................................",
"..............................................................................  ................................................",
"..............................................................................  ................................................",
"..............................................................................  ................................................",
"..............................................................................  ................................................",
"..............................................................................  ................................................",
"............                                                        ..........  ................................................",
"............                                                        ..........  ................................................",
"..........    XXXXXXXXXXXXXXXXXXXXXXXXXXXXXXXXXXXXXXXXXXXXXXXXXXXX    ........  ................................................",
"..........    XXXXXXXXXXXXXXXXXXXXXXXXXXXXXXXXXXXXXXXXXXXXXXXXXXXX    ........  ................................................",
"..........  XXXXXXXXXXXXXXXXXXXXXXXXXXXXXXXXXXXXXXXXXXXXXXXXXXXXXXXX  ........  ................................................",
"..........  XXXXXXXXXXXXXXXXXXXXXXXXXXXXXXXXXXXXXXXXXXXXXXXXXXXXXXXX  ........  ................................................",
"..........  XXXXOOXXXXXXXXXXXXXXXXXXXXXXXXXXXXXXXXXXXXXXXXXXXXXXXXXX  ........  ................................................",
"..........  XXXXOOXXXXXXXXXXXXXXXXXXXXXXXXXXXXXXXXXXXXXXXXXXXXXXXXXX  ........  ................................................",
"..........  XXXXXXXXOOOOOOOOOOXXXXXXXXXXXXXXXXXXXXXXXXXXXXXXXXXXXXXX  ........  ................................................",
"..........  XXXXXXXXOOOOOOOOOOXXXXXXXXXXXXXXXXXXXXXXXXXXXXXXXXXXXXXX  ........  ................................................",
"..........  XXXXXXXXXXXXXXXXXXXXXXXXXXXXXXXXXXXXXXXXXXXXXXXXXXXXXXXX  ........  ................................................",
"..........  XXXXXXXXXXXXXXXXXXXXXXXXXXXXXXXXXXXXXXXXXXXXXXXXXXXXXXXX  ........  ................................................",
"..........  XXXXXXXXOOOOOOOOOOOOOOOOOOOOOOOOOOOOOOXXXXXXXXXXXXXXXXXX  ........  ................................................",
"..........  XXXXXXXXOOOOOOOOOOOOOOOOOOOOOOOOOOOOOOXXXXXXXXXXXXXXXXXX  ........  ................................................",
"..........  XXXXXXXXXXXXXXXXXXXXXXXXXXXXXXXXXXXXXXXXXXXXXXXXXXXXXXXX  ........  ................................................",
"..........  XXXXXXXXXXXXXXXXXXXXXXXXXXXXXXXXXXXXXXXXXXXXXXXXXXXXXXXX  ........  ................................................",
"..........  XXXXXXXXOOOOOOOOOOOOOOOOOOOOXXXXXXXXXXXXXXXXXXXXXXXXXXXX  ........  ................................................",
"..........  XXXXXXXXOOOOOOOOOOOOOOOOOOOOXXXXXXXXXXXXXXXXXXXXXXXXXXXX  ........  ................................................",
"..........  XXXXXXXXXXXXXXXXXXXXXXXXXXXXXXXXXXXXXXXXXXXXXXXXXXXXXXXX  ........  ................................................",
"..........  XXXXXXXXXXXXXXXXXXXXXXXXXXXXXXXXXXXXXXXXXXXXXXXXXXXXXXXX  ........  ................................................",
"..........  XXXXXXXXXXXXXXXXXXXXXXXXXXXXXXXXXXXXXXXXXXXXXXXXXXXXXXXX  ........  ................................................",
"..........  XXXXXXXXXXXXXXXXXXXXXXXXXXXXXXXXXXXXXXXXXXXXXXXXXXXXXXXX  ........  ................................................",
"..........  XXXXXXXXXXXXXXXXXXXXXXXXXXXXXXXXXXXXXXXXXXXXXXXXXXXXXXXX  ........  ................................................",
"..........  XXXXXXXXXXXXXXXXXXXXXXXXXXXXXXXXXXXXXXXXXXXXXXXXXXXXXXXX  ........  ................................................",
"..........  XXXXXXXXXXXXXXXXXXXXXXXXXXXXXXXXXXXXXXXXXXXXXXXXXXXXXXXX  ........  ................................................",
"..........  XXXXXXXXXXXXXXXXXXXXXXXXXXXXXXXXXXXXXXXXXXXXXXXXXXXXXXXX  ........  ................................................",
"..........  XXXXXXXXXXXXXXXXXXXXXXXXXXXXXXXXXXXXXXXXXXXXXXXXXXXXXXXX  ........  ................................................",
"..........  XXXXXXXXXXXXXXXXXXXXXXXXXXXXXXXXXXXXXXXXXXXXXXXXXXXXXXXX  ........  ................................................",
"..........  XXXXXXXXXXXXXXXXXXXXXXXXXXXXXXXXXXXXXXXXXXXXXXXXXXXXXXXX  ........  ................................................",
"..........  XXXXXXXXXXXXXXXXXXXXXXXXXXXXXXXXXXXXXXXXXXXXXXXXXXXXXXXX  ........  ................................................",
"..........  XXXXXXXXXXXXXXXXXXXXXXXXXXXXXXXXXXXXXXXXXXXXXXXXXXXXXXXX  ........  ................................................",
"..........  XXXXXXXXXXXXXXXXXXXXXXXXXXXXXXXXXXXXXXXXXXXXXXXXXXXXXXXX  ........  ................................................",
"..........    XXXXXXXXXXXXXXXXXXXXXXXXXXXXXXXXXXXXXXXXXXXXXXXXXXXX    ........  ................................................",
"..........    XXXXXXXXXXXXXXXXXXXXXXXXXXXXXXXXXXXXXXXXXXXXXXXXXXXX    ........  ................................................",
"............                                                        ..........  ................................................",
"............                                                        ..........  ................................................",
"..............................................................................  ................................................",
"..............................................................................  ................................................",
"..............................................................................  ................................................",
"..............................................................................  ................................................",
"..............................................................................  ................................................",
"..............................................................................  ................................................",
"..................................................                    ........  ................................................",
"..................................................                    ........  ................................................",
"..................................................  oooo++oooo++oooo  ........  ................................................",
"..................................................  oooo++oooo++oooo  ........  ................................................",
"..................................................  oooo++oooo++oooo  ........  ................................................",
"..................................................  oooo++oooo++oooo  ........  ................................................",
"..................................................  ++++++++++++++++  ........  ................................................",
"..................................................  ++++++++++++++++  ........  ................................................",
"..................................................  oooo++oooo++oooo  ........  ................................................",
"..................................................  oooo++oooo++oooo  ........  ................................................",
"..................................................  oooo++oooo++oooo  ........  ................................................",
"..................................................  oooo++oooo++oooo  ........  ................................................",
"..................................................  ++++++++++++++++  ........  ................................................",
"..................................................  ++++++++++++++++  ........  ................................................",
"..................................................  oooo++oooo++oooo  ........  ................................................",
"..................................................  oooo++oooo++oooo  ........  ................................................",
"..................................................  oooo++oooo++oooo  ........  ................................................",
"..................................................  oooo++oooo++oooo  ........  ................................................",
"..................................................  ++++++++++++oooo  ........  ................................................",
"..................................................  ++++++++++++oooo  ........  ................................................",
"..................................................  oooooooo++oooooo  ........  ................................................",
"..................................................  oooooooo++oooooo  ........  ................................................",
"..................................................  oooooooo++oooooo  ........  ................................................",
"..................................................  oooooooo++oooooo  ........  ................................................",
"..................................................                    ........  ................................................",
"..................................................                    ........  ................................................",
"..............................................................................  ................................................",
"..............................................................................  ................................................",
"..............................................................................  ................................................",
"..............................................................................  ................................................",
"..............................................................................  ................................................",
"..............................................................................  ................................................",
"..............................................................................  ................................................",
"..............................................................................  ................................................",
"..............................................................................  ................................................",
"..............................................................................  ................................................",
"..............................................................................  ................................................",
"..............................................................................  ................................................",
"..............................................................................  ................................................",
"..............................................................................  ................................................",
"..............................................................................  ................................................",
"..............................................................................  ................................................",
"..............................................................................  ................................................",
"..............................................................................  ................................................",
"..............................................................................  ................................................",
"..............................................................................  ................................................",
"..............................................................................  ................................................",
"..............................................................................  ................................................",
"..............................................................................  ................................................",
"..............................................................................  ................................................",
"..............................................................................  ................................................",
"..............................................................................  ................................................",
"..............................................................................  ................................................",
"..............................................................................  ................................................",
"..............................................................................  ................................................",
"..............................................................................  ................................................",
"..............................................................................  ................................................",
"..............................................................................  ................................................",
"..............................................................................  ................................................",
"..............................................................................  ................................................",
"..............................................................................  ................................................",
"..............................................................................  ................................................",
"                                                                                                                                ",
"                                                                                                                                "
};
