/* XPM */
static char *Wall3[] = {
/* columns rows colors chars-per-pixel */
"128 128 13 1 ",
"  c black",
". c #1F2322",
"X c #1D2724",
"o c #232E2B",
"O c #5D250B",
"+ c #325917",
"@ c #2D463E",
"# c #0B3D61",
"$ c #831212",
"% c #AC3232",
"& c #8F563B",
"* c #D9A066",
"= c #CBDBFC",
/* pixels */
"..............................................................................XXXXXXXXXXXXXXXXXXXXXXXXXXXXXXXXXXXXXXXXXXXXXXXXXX",
"..............................................................................XXXXXXXXXXXXXXXXXXXXXXXXXXXXXXXXXXXXXXXXXXXXXXXXXX",
"..@@@@@@@@@@@@@@@@@@@@@@@@@@@@@@@@@@@@@@@@@@@@@@@@@@@@@@@@@@@@@@@@@@@@@@@@@@@@..@@@@@@@@@@@@@@@@@@@@@@@@@@@@@@@@@@@@@@@@@@@@@@@@",
"..@@@@@@@@@@@@@@@@@@@@@@@@@@@@@@@@@@@@@@@@@@@@@@@@@@@@@@@@@@@@@@@@@@@@@@@@@@@@..@@@@@@@@@@@@@@@@@@@@@@@@@@@@@@@@@@@@@@@@@@@@@@@@",
"..@@........................................................................@@..@@@@@@@@@@@@@@@@@@@@@@@@@@@@@@@@@@@@@@@@@@@@@@@@",
"..@@........................................................................@@..@@@@@@@@@@@@@@@@@@@@@@@@@@@@@@@@@@@@@@@@@@@@@@@@",
"..@@..@@@@@@@@@@@@@@@@@@@@@@@@@@@@@@@@@@@@@@@@@@@@@@@@@@@@@@@@@@@@@@@@@@@@..@@..@@@@@@@@@@@@@@@@@@@@@@@@@@@@@@@@@@@@@@@@@@@@@@@@",
"..@@..@@@@@@@@@@@@@@@@@@@@@@@@@@@@@@@@@@@@@@@@@@@@@@@@@@@@@@@@@@@@@@@@@@@@..@@..@@@@@@@@@@@@@@@@@@@@@@@@@@@@@@@@@@@@@@@@@@@@@@@@",
"..@@..@@@@@@....................................................@@@@@@@@@@..@@..@@@@@@@@@@@@@@@@@@@@@@@@@@@@@@@@@@@@@@@@@@@@@@@@",
"..@@..@@@@@@....................................................@@@@@@@@@@..@@..@@@@@@@@@@@@@@@@@@@@@@@@@@@@@@@@@@@@@@@@@@@@@@@@",
"..@@..@@@@....@@@@@@@@@@@@@@@@@@@@@@@@@@@@@@@@@@@@@@@@@@@@@@@@....@@@@@@@@..@@..@@@@@@@@@@@@@@@@@@@@@@@@@@@@@@@@@@@@@@@@@@@@@@@@",
"..@@..@@@@....@@@@@@@@@@@@@@@@@@@@@@@@@@@@@@@@@@@@@@@@@@@@@@@@....@@@@@@@@..@@..@@@@@@@@@@@@@@@@@@@@@@@@@@@@@@@@@@@@@@@@@@@@@@@@",
"..@@..@@@@..@@@@............................................@@@@..@@@@@@@@..@@..@@@@@@@@@@@@@@@@@@@@@@@@@@@@@@@@@@@@@@@@@@@@@@@@",
"..@@..@@@@..@@@@............................................@@@@..@@@@@@@@..@@..@@@@@@@@@@@@@@@@@@@@@@@@@@@@@@@@@@@@@@@@@@@@@@@@",
"..@@..@@@@..@@@@@@@@@@@@@@@@@@@@@@@@@@@@@@@@@@@@@@@@@@@@@@@@@@@@..@@@@@@@@..@@..@@@@@@@@@@@@@@@@@@@@@@@@@@@@@@@@@@@@@@@@@@@@@@@@",
"..@@..@@@@..@@@@@@@@@@@@@@@@@@@@@@@@@@@@@@@@@@@@@@@@@@@@@@@@@@@@..@@@@@@@@..@@..@@@@@@@@@@@@@@@@@@@@@@@@@@@@@@@@@@@@@@@@@@@@@@@@",
"..@@..@@@@..@@@@............................................@@@@..@@@@@@@@..@@..@@@@@@@@@@@@@@@@@@@@@@@@@@@@@@@@@@@@@@@@@@@@@@@@",
"..@@..@@@@..@@@@............................................@@@@..@@@@@@@@..@@..@@@@@@@@@@@@@@@@@@@@@@@@@@@@@@@@@@@@@@@@@@@@@@@@",
"..@@..@@@@....@@@@@@@@@@@@@@@@@@@@@@@@@@@@@@@@@@@@@@@@@@@@@@@@....@@@@@@@@..@@..@@@@@@@@@@@@@@@@@@@@@@@@@@@@@@@@@@@@@@@@@@@@@@@@",
"..@@..@@@@....@@@@@@@@@@@@@@@@@@@@@@@@@@@@@@@@@@@@@@@@@@@@@@@@....@@@@@@@@..@@..@@@@@@@@@@@@@@@@@@@@@@@@@@@@@@@@@@@@@@@@@@@@@@@@",
"..@@..@@@@@@....................................................@@@@@@@@@@..@@..@@@@@@@@@@@@@@@@@@@@@@@@@@@@@@@@@@@@@@@@@@@@@@@@",
"..@@..@@@@@@....................................................@@@@@@@@@@..@@..@@@@@@@@@@@@@@@@@@@@@@@@@@@@@@@@@@@@@@@@@@@@@@@@",
"..@@..@@@@@@@@@@@@@@@@@@@@@@@@@@@@@@@@@@@@@@@@@@@@@@@@@@@@@@@@@@@@@@@@@@@@..@@..@@@@@@@@@@@@@@@@@@@@@@@@@@@@@@@@@@@@@@@@@@@@@@@@",
"..@@..@@@@@@@@@@@@@@@@@@@@@@@@@@@@@@@@@@@@@@@@@@@@@@@@@@@@@@@@@@@@@@@@@@@@..@@..@@@@@@@@@@@@@@@@@@@@@@@@@@@@@@@@@@@@@@@@@@@@@@@@",
"..@@..@@@@@@@@@@============================================@@@@@@@@@@@@@@..@@..@@@@@@@@@@@@@@@@@@@@@@@@@@@@@@@@@@@@@@@@@@@@@@@@",
"..@@..@@@@@@@@@@============================================@@@@@@@@@@@@@@..@@..@@@@@@@@@@@@@@@@@@@@@@@@@@@@@@@@@@@@@@@@@@@@@@@@",
"..@@..@@@@@@@@@@============================================@@@@@@@@@@@@@@..@@..@@@@@@@@@@@@@@@@@@@@@@@@@@@@@@@@@@@@@@@@@@@@@@@@",
"..@@..@@@@@@@@@@============================================@@@@@@@@@@@@@@..@@..@@@@@@@@@@@@@@@@@@@@@@@@@@@@@@@@@@@@@@@@@@@@@@@@",
"..@@..@@@@@@@@@@====    ====    ==      ==    ==  ==  ======@@@@@@@@@@@@@@..@@..@@@@@@@@@@@@@@@@@@@@@@@@@@@@@@@@@@@@@@@@@@@@@@@@",
"..@@..@@@@@@@@@@====    ====    ==      ==    ==  ==  ======@@@@@@@@@@@@@@..@@..@@@@@@@@@@@@@@@@@@@@@@@@@@@@@@@@@@@@@@@@@@@@@@@@",
"..@@..@@@@@@@@@@====  ==  ==  ====  ==  ==  ====  ==  ======@@@@@@@@@@@@@@..@@..@@@@@@@@@@@@@@@@@@@@@@@@@@@@@@@@@@@@@@@@@@@@@@@@",
"..@@..@@@@@@@@@@====  ==  ==  ====  ==  ==  ====  ==  ======@@@@@@@@@@@@@@..@@..@@@@@@@@@@@@@@@@@@@@@@@@@@@@@@@@@@@@@@@@@@@@@@@@",
"..@@..@@@@@@@@@@====    ====    ==      ==  ====      ======@@@@@@@@@@@@@@..@@..@@@@@@@@@@@@@@@@@@@@@@@@@@@@@@@@@@@@@@@@@@@@@@@@",
"..@@..@@@@@@@@@@====    ====    ==      ==  ====      ======@@@@@@@@@@@@@@..@@..@@@@@@@@@@@@@@@@@@@@@@@@@@@@@@@@@@@@@@@@@@@@@@@@",
"..@@..@@@@@@@@@@====  ==  ==  ====  ==  ==  ====  ==  ======@@@@@@@@@@@@@@..@@..@@@@@@@@@@@@@@@@@@@@@@@@@@@@@@@@@@@@@@@@@@@@@@@@",
"..@@..@@@@@@@@@@====  ==  ==  ====  ==  ==  ====  ==  ======@@@@@@@@@@@@@@..@@..@@@@@@@@@@@@@@@@@@@@@@@@@@@@@@@@@@@@@@@@@@@@@@@@",
"..@@..@@@@@@@@@@====    ====    ==  ==  ==    ==  ==  ======@@@@@@@@@@@@@@..@@..@@@@@@@@@@@@@@@@@@@@@@@@@@@@@@@@@@@@@@@@@@@@@@@@",
"..@@..@@@@@@@@@@====    ====    ==  ==  ==    ==  ==  ======@@@@@@@@@@@@@@..@@..@@@@@@@@@@@@@@@@@@@@@@@@@@@@@@@@@@@@@@@@@@@@@@@@",
"..@@..@@@@@@@@@@============================================@@@@@@@@@@@@@@..@@..@@@@@@@@@@@@@@@@@@@@@@@@@@@@@@@@@@@@@@@@@@@@@@@@",
"..@@..@@@@@@@@@@============================================@@@@@@@@@@@@@@..@@..@@@@@@@@@@@@@@@@@@@@@@@@@@@@@@@@@@@@@@@@@@@@@@@@",
"..@@..@@@@@@@@@@============================================@@@@@@@@@@@@@@..@@..@@@@@@@@..............................@@@@@@@@@@",
"..@@..@@@@@@@@@@============================================@@@@@@@@@@@@@@..@@..@@@@@@@@..............................@@@@@@@@@@",
"..@@..@@@@@@@@@@============&&&&&&====&&====================@@@@@@@@@@@@@@..@@..@@@@@@@@..@@@@@@@@@@@@@@@@@@@@@@@@@@..##@@@@@@@@",
"..@@..@@@@@@@@@@============&&&&&&====&&====================@@@@@@@@@@@@@@..@@..@@@@@@@@..@@@@@@@@@@@@@@@@@@@@@@@@@@..##@@@@@@@@",
"..@@..@@@@@@@@@@==========&&&&&&&&&&&&&&&&&&================@@@@@@@@@@@@@@..@@..@@@@@@@@..@@..@@@@@@@@@@@@@@@@@@..@@..@@##@@@@@@",
"..@@..@@@@@@@@@@==========&&&&&&&&&&&&&&&&&&================@@@@@@@@@@@@@@..@@..@@@@@@@@..@@..@@@@@@@@@@@@@@@@@@..@@..@@##@@@@@@",
"..@@..@@@@@@@@@@========&&&&&&&&&&&&&&&&&&&&&&&&&&==========@@@@@@@@@@@@@@..@@..@@@@@@@@..@@@@@@@@@@@@@@@@@@@@@@@@@@..@@@@##@@@@",
"..@@..@@@@@@@@@@========&&&&&&&&&&&&&&&&&&&&&&&&&&==========@@@@@@@@@@@@@@..@@..@@@@@@@@..@@@@@@@@@@@@@@@@@@@@@@@@@@..@@@@##@@@@",
"..@@..@@@@@@@@@@======&&&&&&&&&&&&&&&&&&&&&&&&&&&&==========@@@@@@@@@@@@@@..@@..@@@@@@@@..@@..@@@@@@@@@@@@@@@@@@@@@@..@@@@@@@@@@",
"..@@..@@@@@@@@@@======&&&&&&&&&&&&&&&&&&&&&&&&&&&&==========@@@@@@@@@@@@@@..@@..@@@@@@@@..@@..@@@@@@@@@@@@@@@@@@@@@@..@@@@@@@@@@",
"..@@..@@@@@@@@@@====&&&&&&&&******&&&&&&&&&&&&&&&&&&========@@@@@@@@@@@@@@..@@..@@@@@@@@..@@@@@@@@@@@@@@@@@@@@@@@@@@..@@@@@@@@@@",
"..@@..@@@@@@@@@@====&&&&&&&&******&&&&&&&&&&&&&&&&&&========@@@@@@@@@@@@@@..@@..@@@@@@@@..@@@@@@@@@@@@@@@@@@@@@@@@@@..@@@@@@@@@@",
"..@@..@@@@@@@@@@====&&&&&&**********&&&&&&&&&&&&&&&&&&======@@@@@@@@@@@@@@..@@..@@@@@@@@..............................@@@@@@@@@@",
"..@@..@@@@@@@@@@====&&&&&&**********&&&&&&&&&&&&&&&&&&======@@@@@@@@@@@@@@..@@..@@@@@@@@..............................@@@@@@@@@@",
"..@@..@@@@@@@@@@====&&&&&&****************&&&&&&&&&&&&======@@@@@@@@@@@@@@..@@..@@@@@@@@@@@@@@@@@@@@@@@@@@@@@@++@@$$@@@@@@@@@@@@",
"..@@..@@@@@@@@@@====&&&&&&****************&&&&&&&&&&&&======@@@@@@@@@@@@@@..@@..@@@@@@@@@@@@@@@@@@@@@@@@@@@@@@++@@$$@@@@@@@@@@@@",
"..@@..@@@@@@@@@@====&&&&&&****************&&&&&&&&&&&&&&====@@@@@@@@@@@@@@..@@..@@@@@@@@@@@@@@@@@@@@@@@@@@@@@@++@@@@$$@@@@@@@@@@",
"..@@..@@@@@@@@@@====&&&&&&****************&&&&&&&&&&&&&&====@@@@@@@@@@@@@@..@@..@@@@@@@@@@@@@@@@@@@@@@@@@@@@@@++@@@@$$@@@@@@@@@@",
"..@@..@@@@@@@@@@==&&&&&&&&****OO******OO****&&&&&&&&&&&&====@@@@@@@@@@@@@@..@@..@@@@@@@@@@@@@@@@@@@@@@@@@@@@@@@@++@@$$@@@@@@@@@@",
"..@@..@@@@@@@@@@==&&&&&&&&****OO******OO****&&&&&&&&&&&&====@@@@@@@@@@@@@@..@@..@@@@@@@@@@@@@@@@@@@@@@@@@@@@@@@@++@@$$@@@@@@@@@@",
"..@@..@@@@@@@@@@==&&&&&&******OO******OO******&&&&&&&&&&====@@@@@@@@@@@@@@..@@..@@@@@@@@@@@@@@@@@@@@@@@@@@@@@@@@@@@@@@@@@@@@@@@@",
"..@@..@@@@@@@@@@==&&&&&&******OO******OO******&&&&&&&&&&====@@@@@@@@@@@@@@..@@..@@@@@@@@@@@@@@@@@@@@@@@@@@@@@@@@@@@@@@@@@@@@@@@@",
"..@@..@@@@@@@@@@==&&&&&&************************&&&&&&======@@@@............@@..@@@@@@@@@@@@@@@@@@@@@@@@@@@@@@@@@@@@@@@@@@@@@@@@",
"..@@..@@@@@@@@@@==&&&&&&************************&&&&&&======@@@@............@@..@@@@@@@@@@@@@@@@@@@@@@@@@@@@@@@@@@@@@@@@@@@@@@@@",
"..@@..@@@@@@@@@@==&&&&&&**************%%********&&&&&&&&====@@@@..@@oo..@@..@@..@@@@@@@@@@@@@@@@@@@@@@@@@@@@@@@@@@@@@@@@@@@@@@@@",
"..@@..@@@@@@@@@@==&&&&&&**************%%********&&&&&&&&====@@@@..@@oo..@@..@@..@@@@@@@@@@@@@@@@@@@@@@@@@@@@@@@@@@@@@@@@@@@@@@@@",
"..@@..@@@@@@@@@@==&&&&&&********%%%%%%************&&&&&&====@@@@..@@oooo@@..@@..@@@@@@@@@@@@@@@@@@@@@@@@@@@@@@@@@@@@@@@@@@@@@@@@",
"..@@..@@@@@@@@@@==&&&&&&********%%%%%%************&&&&&&====@@@@..@@oooo@@..@@..@@@@@@@@@@@@@@@@@@@@@@@@@@@@@@@@@@@@@@@@@@@@@@@@",
"..@@..@@@@@@@@@@==&&&&&&************************&&&&&&&&====@@@@..@@@@@@@@..@@..@@@@@@@@@@@@@@@@@@@@@@@@@@@@@@@@@@@@@@@@@@@@@@@@",
"..@@..@@@@@@@@@@==&&&&&&************************&&&&&&&&====@@@@..@@@@@@@@..@@..@@@@@@@@@@@@@@@@@@@@@@@@@@@@@@@@@@@@@@@@@@@@@@@@",
"..@@..@@@@@@@@@@==&&&&&&&&&&&&&&******&&&&&&&&&&&&&&&&======@@@@............@@..@@@@@@@@@@@@@@@@@@@@@@@@@@@@@@@@@@@@@@@@@@@@@@@@",
"..@@..@@@@@@@@@@==&&&&&&&&&&&&&&******&&&&&&&&&&&&&&&&======@@@@............@@..@@@@@@@@@@@@@@@@@@@@@@@@@@@@@@@@@@@@@@@@@@@@@@@@",
"..@@..@@@@@@@@@@==&&&&&&&&******************&&&&&&&&&&======@@@@@@@@@@@@@@..@@..@@@@@@@@@@@@@@@@@@@@@@@@@@@@@@@@@@@@@@@@@@@@@@@@",
"..@@..@@@@@@@@@@==&&&&&&&&******************&&&&&&&&&&======@@@@@@@@@@@@@@..@@..@@@@@@@@@@@@@@@@@@@@@@@@@@@@@@@@@@@@@@@@@@@@@@@@",
"..@@..@@@@@@@@@@==&&&&&&&&******************&&&&&&&&&&&&====@@@@@@@@@@@@@@..@@..@@@@@@@@@@@@@@@@@@@@@@@@@@@@@@@@@@@@@@@@@@@@@@@@",
"..@@..@@@@@@@@@@==&&&&&&&&******************&&&&&&&&&&&&====@@@@@@@@@@@@@@..@@..@@@@@@@@@@@@@@@@@@@@@@@@@@@@@@@@@@@@@@@@@@@@@@@@",
"..@@..@@@@@@@@@@==&&&&&&&&******************&&&&&&&&&&&&====@@@@@@@@@@@@@@..@@..@@@@@@@@@@@@@@@@@@@@@@@@@@@@@@@@@@@@@@@@@@@@@@@@",
"..@@..@@@@@@@@@@==&&&&&&&&******************&&&&&&&&&&&&====@@@@@@@@@@@@@@..@@..@@@@@@@@@@@@@@@@@@@@@@@@@@@@@@@@@@@@@@@@@@@@@@@@",
"..@@..@@@@@@@@@@&&&&&&&&&&&&%%%%******%%%%&&&&&&&&&&&&&&====@@@@@@@@@@@@@@..@@..@@@@@@@@@@@@@@@@@@@@@@@@@@@@@@@@@@@@@@@@@@@@@@@@",
"..@@..@@@@@@@@@@&&&&&&&&&&&&%%%%******%%%%&&&&&&&&&&&&&&====@@@@@@@@@@@@@@..@@..@@@@@@@@@@@@@@@@@@@@@@@@@@@@@@@@@@@@@@@@@@@@@@@@",
"..@@..@@@@@@@@@@&&&&&&&&&&&&%%%%%%**%%%%&&&&&&&&&&&&&&&&====@@@@@@@@@@@@@@..@@..@@@@@@@@@@@@@@@@@@@@@@@@@@@@@@@@@@@@@@@@@@@@@@@@",
"..@@..@@@@@@@@@@&&&&&&&&&&&&%%%%%%**%%%%&&&&&&&&&&&&&&&&====@@@@@@@@@@@@@@..@@..@@@@@@@@@@@@@@@@@@@@@@@@@@@@@@@@@@@@@@@@@@@@@@@@",
"..@@..@@@@@@@@@@==&&&&&&&&&&&&%%%%%%%%%%&&&&&&&&&&&&&&======@@@@@@@@@@@@@@..@@..@@@@@@@@@@@@@@@@@@@@@@@@@@@@@@@@@@@@@@@@@@@@@@@@",
"..@@..@@@@@@@@@@==&&&&&&&&&&&&%%%%%%%%%%&&&&&&&&&&&&&&======@@@@@@@@@@@@@@..@@..@@@@@@@@@@@@@@@@@@@@@@@@@@@@@@@@@@@@@@@@@@@@@@@@",
"..@@..@@@@@@@@@@==&&&&&&&&&&&&%%%%**%%%%%%&&&&&&&&&&&&======@@@@@@@@@@@@@@..@@..@@@@@@@@@@@@@@@@@@@@@@@@@@@@@@@@@@@@@@@@@@@@@@@@",
"..@@..@@@@@@@@@@==&&&&&&&&&&&&%%%%**%%%%%%&&&&&&&&&&&&======@@@@@@@@@@@@@@..@@..@@@@@@@@@@@@@@@@@@@@@@@@@@@@@@@@@@@@@@@@@@@@@@@@",
"..@@..@@@@@@@@@@==&&&&&&&&&&&&**************&&&&&&&&&&======@@@@@@@@@@@@@@..@@..@@@@@@@@@@@@@@@@@@@@@@@@@@@@@@@@@@@@@@@@@@@@@@@@",
"..@@..@@@@@@@@@@==&&&&&&&&&&&&**************&&&&&&&&&&======@@@@@@@@@@@@@@..@@..@@@@@@@@@@@@@@@@@@@@@@@@@@@@@@@@@@@@@@@@@@@@@@@@",
"..@@..@@@@@@@@@@==&&&&&&&&&&&&&&**********&&&&&&&&&&&&======@@@@@@@@@@@@@@..@@..@@@@@@@@@@@@@@@@@@@@@@@@@@@@@@@@@@@@@@@@@@@@@@@@",
"..@@..@@@@@@@@@@==&&&&&&&&&&&&&&**********&&&&&&&&&&&&======@@@@@@@@@@@@@@..@@..@@@@@@@@@@@@@@@@@@@@@@@@@@@@@@@@@@@@@@@@@@@@@@@@",
"..@@..@@@@@@@@@@==&&&&&&==&&&&&&************&&&&&&&&&&======@@@@@@@@@@@@@@..@@..@@@@@@@@@@@@@@@@@@@@@@@@@@@@@@@@@@@@@@@@@@@@@@@@",
"..@@..@@@@@@@@@@==&&&&&&==&&&&&&************&&&&&&&&&&======@@@@@@@@@@@@@@..@@..@@@@@@@@@@@@@@@@@@@@@@@@@@@@@@@@@@@@@@@@@@@@@@@@",
"..@@..@@@@@@@@@@====&&====**&&**************&&&&&&&&========@@@@@@@@@@@@@@..@@..@@@@@@@@@@@@@@@@@@@@@@@@@@@@@@@@@@@@@@@@@@@@@@@@",
"..@@..@@@@@@@@@@====&&====**&&**************&&&&&&&&========@@@@@@@@@@@@@@..@@..@@@@@@@@@@@@@@@@@@@@@@@@@@@@@@@@@@@@@@@@@@@@@@@@",
"..@@..@@@@@@@@@@==========********************&&&&&&========@@@@@@@@@@@@@@..@@..@@@@@@@@@@@@@@@@@@@@@@@@@@@@@@@@@@@@@@@@@@@@@@@@",
"..@@..@@@@@@@@@@==========********************&&&&&&========@@@@@@@@@@@@@@..@@..@@@@@@@@@@@@@@@@@@@@@@@@@@@@@@@@@@@@@@@@@@@@@@@@",
"..@@..@@@@@@@@@@==========**********************&&==========@@@@@@@@@@@@@@..@@..@@@@@@@@@@@@@@@@@@@@@@@@@@@@@@@@@@@@@@@@@@@@@@@@",
"..@@..@@@@@@@@@@==========**********************&&==========@@@@@@@@@@@@@@..@@..@@@@@@@@@@@@@@@@@@@@@@@@@@@@@@@@@@@@@@@@@@@@@@@@",
"..@@..@@@@@@@@@@==========**********************============@@@@@@@@@@@@@@..@@..@@@@@@@@@@@@@@@@@@@@@@@@@@@@@@@@@@@@@@@@@@@@@@@@",
"..@@..@@@@@@@@@@==========**********************============@@@@@@@@@@@@@@..@@..@@@@@@@@@@@@@@@@@@@@@@@@@@@@@@@@@@@@@@@@@@@@@@@@",
"..@@..@@@@@@@@@@==========**********************============@@@@@@@@@@@@@@..@@..@@@@@@@@@@@@@@@@@@@@@@@@@@@@@@@@@@@@@@@@@@@@@@@@",
"..@@..@@@@@@@@@@==========**********************============@@@@@@@@@@@@@@..@@..@@@@@@@@@@@@@@@@@@@@@@@@@@@@@@@@@@@@@@@@@@@@@@@@",
"..@@..@@@@@@@@@@@@@@@@@@@@@@@@@@@@@@@@@@@@@@@@@@@@@@@@@@@@@@@@@@@@@@@@@@@@..@@..@@@@@@@@@@@@@@@@@@@@@@@@@@@@@@@@@@@@@@@@@@@@@@@@",
"..@@..@@@@@@@@@@@@@@@@@@@@@@@@@@@@@@@@@@@@@@@@@@@@@@@@@@@@@@@@@@@@@@@@@@@@..@@..@@@@@@@@@@@@@@@@@@@@@@@@@@@@@@@@@@@@@@@@@@@@@@@@",
"..@@..@@@@@@@@@@@@@@@@@@@@@@@@@@@@@@@@@@@@@@@@@@@@@@@@@@@@@@@@@@@@@@@@@@@@..@@..@@@@@@@@@@@@@@@@@@@@@@@@@@@@@@@@@@@@@@@@@@@@@@@@",
"..@@..@@@@@@@@@@@@@@@@@@@@@@@@@@@@@@@@@@@@@@@@@@@@@@@@@@@@@@@@@@@@@@@@@@@@..@@..@@@@@@@@@@@@@@@@@@@@@@@@@@@@@@@@@@@@@@@@@@@@@@@@",
"..@@..@@@@@@@@@@@@@@@@@@@@@@@@@@@@@@@@@@@@@@@@@@@@@@@@@@@@@@@@@@@@@@@@@@@@..@@..@@@@@@@@@@@@@@@@@@@@@@@@@@@@@@@@@@@@@@@@@@@@@@@@",
"..@@..@@@@@@@@@@@@@@@@@@@@@@@@@@@@@@@@@@@@@@@@@@@@@@@@@@@@@@@@@@@@@@@@@@@@..@@..@@@@@@@@@@@@@@@@@@@@@@@@@@@@@@@@@@@@@@@@@@@@@@@@",
"..@@..@@@@@@@@@@@@@@@@@@@@@@@@@@@@@@@@@@@@@@@@@@@@@@@@@@@@@@@@@@@@@@@@@@@@..@@..@@@@@@@@@@@@@@@@@@@@@@@@@@@@@@@@@@@@@@@@@@@@@@@@",
"..@@..@@@@@@@@@@@@@@@@@@@@@@@@@@@@@@@@@@@@@@@@@@@@@@@@@@@@@@@@@@@@@@@@@@@@..@@..@@@@@@@@@@@@@@@@@@@@@@@@@@@@@@@@@@@@@@@@@@@@@@@@",
"..@@..@@@@@@@@@@@@@@@@@@@@@@@@@@@@@@@@@@@@@@@@@@@@@@@@@@@@@@@@@@@@@@@@@@@@..@@..@@@@@@@@@@@@@@@@@@@@@@@@@@@@@@@@@@@@@@@@@@@@@@@@",
"..@@..@@@@@@@@@@@@@@@@@@@@@@@@@@@@@@@@@@@@@@@@@@@@@@@@@@@@@@@@@@@@@@@@@@@@..@@..@@@@@@@@@@@@@@@@@@@@@@@@@@@@@@@@@@@@@@@@@@@@@@@@",
"..@@..@@@@@@@@@@@@@@@@@@@@@@@@@@@@@@@@@@@@@@@@@@@@@@@@@@@@@@@@@@@@@@@@@@@@..@@..@@@@@@@@@@@@@@@@@@@@@@@@@@@@@@@@@@@@@@@@@@@@@@@@",
"..@@..@@@@@@@@@@@@@@@@@@@@@@@@@@@@@@@@@@@@@@@@@@@@@@@@@@@@@@@@@@@@@@@@@@@@..@@..@@@@@@@@@@@@@@@@@@@@@@@@@@@@@@@@@@@@@@@@@@@@@@@@",
"..@@..@@@@@@@@@@@@@@@@@@@@@@@@@@@@@@@@@@@@@@@@@@@@@@@@@@@@@@@@@@@@@@@@@@@@..@@..@@@@@@@@@@@@@@@@@@@@@@@@@@@@@@@@@@@@@@@@@@@@@@@@",
"..@@..@@@@@@@@@@@@@@@@@@@@@@@@@@@@@@@@@@@@@@@@@@@@@@@@@@@@@@@@@@@@@@@@@@@@..@@..@@@@@@@@@@@@@@@@@@@@@@@@@@@@@@@@@@@@@@@@@@@@@@@@",
"..@@..@@@@@@@@@@@@@@@@@@@@@@@@@@@@@@@@@@@@@@@@@@@@@@@@@@@@@@@@@@@@@@@@@@@@..@@..@@@@@@@@@@@@@@@@@@@@@@@@@@@@@@@@@@@@@@@@@@@@@@@@",
"..@@..@@@@@@@@@@@@@@@@@@@@@@@@@@@@@@@@@@@@@@@@@@@@@@@@@@@@@@@@@@@@@@@@@@@@..@@..@@@@@@@@@@@@@@@@@@@@@@@@@@@@@@@@@@@@@@@@@@@@@@@@",
"..@@..@@@@@@@@@@@@@@@@@@@@@@@@@@@@@@@@@@@@@@@@@@@@@@@@@@@@@@@@@@@@@@@@@@@@..@@..@@@@@@@@@@@@@@@@@@@@@@@@@@@@@@@@@@@@@@@@@@@@@@@@",
"..@@..@@@@@@@@@@@@@@@@@@@@@@@@@@@@@@@@@@@@@@@@@@@@@@@@@@@@@@@@@@@@@@@@@@@@..@@..@@@@@@@@@@@@@@@@@@@@@@@@@@@@@@@@@@@@@@@@@@@@@@@@",
"..@@..@@@@@@@@@@@@@@@@@@@@@@@@@@@@@@@@@@@@@@@@@@@@@@@@@@@@@@@@@@@@@@@@@@@@..@@..@@@@@@@@@@@@@@@@@@@@@@@@@@@@@@@@@@@@@@@@@@@@@@@@",
"..@@..@@@@@@@@@@@@@@@@@@@@@@@@@@@@@@@@@@@@@@@@@@@@@@@@@@@@@@@@@@@@@@@@@@@@..@@..@@@@@@@@@@@@@@@@@@@@@@@@@@@@@@@@@@@@@@@@@@@@@@@@",
"..@@........................................................................@@..@@@@@@@@@@@@@@@@@@@@@@@@@@@@@@@@@@@@@@@@@@@@@@@@",
"..@@........................................................................@@..@@@@@@@@@@@@@@@@@@@@@@@@@@@@@@@@@@@@@@@@@@@@@@@@",
"..@@@@@@@@@@@@@@@@@@@@@@@@@@@@@@@@@@@@@@@@@@@@@@@@@@@@@@@@@@@@@@@@@@@@@@@@@@@@..@@@@@@@@@@@@@@@@@@@@@@@@@@@@@@@@@@@@@@@@@@@@@@@@",
"..@@@@@@@@@@@@@@@@@@@@@@@@@@@@@@@@@@@@@@@@@@@@@@@@@@@@@@@@@@@@@@@@@@@@@@@@@@@@..@@@@@@@@@@@@@@@@@@@@@@@@@@@@@@@@@@@@@@@@@@@@@@@@",
"................................................................................XXXXXXXXXXXXXXXXXXXXXXXXXXXXXXXXXXXXXXXXXXXXXXXX",
"................................................................................XXXXXXXXXXXXXXXXXXXXXXXXXXXXXXXXXXXXXXXXXXXXXXXX"
};
