/* XPM */
static char *Octopuss[] = {
/* columns rows colors chars-per-pixel */
"128 128 9 1 ",
"  c #222034",
". c #272735",
"X c #2C2C3B",
"o c #2C2C3C",
"O c #501D63",
"+ c #BA5B19",
"@ c #DF7126",
"# c #76428A",
"$ c #8D5E9F",
/* pixels */
"                            ....        ....                ....                                            ....                ",
"                            ....        ....                ....                                            ....                ",
"                            ....        ....                ....                                            ....                ",
"                            ....        ....                ....                                            ....                ",
"    ooooooooXXXXoooooooooooooooooooooooooooo....oooooooooooooooooooooooooooooooooooooooooooooooo....XXXXXXXXoooooooooooooooo    ",
"    ooooooooXXXXoooooooooooooooooooooooooooo....ooooooooooooooooooooooooooooooooXooooooooooooooo....XXXXXXXXoooooooooooooooo    ",
"    ooooooooXXXXoooooooooooooooooooooooooooo....ooooooooooooooooooooooooooooooooXXoooooooooooooo....XXXXXXXXoooooooooooooooo    ",
"    ooooooooXXXXoooooooooooooooooooooooooooo....ooooooooooooooooooooooooooooooooXXoooooooooooooo....XXXXXXXXoooooooooooooooo    ",
"    ooooooooXXXXoooo....XXXX....ooooooooooooooooooooooooooooooooooooXXXX....ooooooooXXXX....XXXXoooooooooooo........oooooooo    ",
"    ooooooooXXXXoooo....XXXX....ooooooooooooooooooooooooooooooooooooXXXX....ooooooooXXXX....XXXXoooooooooooo........oooooooo    ",
"    ooooooooXXXXoooo....XXXX....ooooooooooooooooooooooooooooooooooooXXXX....ooooooooXXXX....XXXXoooooooooooo........oooooooo    ",
"    ooooooooXXXXoooo....XXXX....ooooooooooooooooooooooooooooooooooooXXXX....ooooooooXXXX....XXXXoooooooooooo........oooooooo    ",
"    oooooooooooooooooooooooooooooooooooooooooooooooo########################oooooooooooooooooooooooooooooooooooooooooooooooo    ",
"    oooooooooooooooooooooooooooooooooooooooooooooooo########################oooooooooooooooooooooooooooooooooooooooooooooooo    ",
"    oooooooooooooooooooooooooooooooooooooooooooooooo########################oooooooooooooooooooooooooooooooooooooooooooooooo    ",
"    oooooooooooooooooooooooooooooooooooooooooooooooo########################oooooooooooooooooooooooooooooooooooooooooooooooo    ",
"    oooooooooooooooooooooooooooooooooooooooooooo################OOOO####OOOO####oooooooooooooooooooooooooooooooooooooooooooo    ",
"    oooooooooooooooooooooooooooooooooooooooooooo################OOOO####OOOO####oooooooooooooooooooooooooooooooooooooooooooo    ",
"    oooooooooooooooooooooooooooooooooooooooooooo################OOOO####OOOO####oooooooooooooooooooooooooooooooooooooooooooo    ",
"    oooooooooooooooooooooooooooooooooooooooooooo################OOOO####OOOO####oooooooooooooooooooooooooooooooooooooooooooo    ",
"    oooooooooooooooooooooooooooooooooooooooo################OOOO####OOOOOOOOoooooooooooooooooooooooooooooooooooooooooooooooo....",
"    oooooooooooooooooooooooooooooooooooooooo################OOOO####OOOOOOOOoooooooooooooooooooooooooooooooooooooooooooooooo....",
"    oooooooooooooooooooooooooooooooooooooooo################OOOO####OOOOOOOOoooooooooooooooooooooooooooooooooooooooooooooooo....",
"    oooooooooooooooooooooooooooooooooooooooo################OOOO####OOOOOOOOoooooooooooooooooooooooooooooooooooooooooooooooo....",
"    oooooooooooooooooooooooooooooooooooooooo############OOOOoooooooooooooooooooooooooooooooooooooooooooooooooooooooooooooooo    ",
"    oooooooooooooooooooooooooooooooooooooooo############OOOOoooooooooooooooooooooooooooooooooooooooooooooooooooooooooooooooo    ",
"    oooooooooooooooooooooooooooooooooooooooo############OOOOoooooooooooooooooooooooooooooooooooooooooooooooooooooooooooooooo    ",
"    oooooooooooooooooooooooooooooooooooooooo############OOOOoooooooooooooooooooooooooooooooooooooooooooooooooooooooooooooooo    ",
"    XXXXoooooooooooooooooooooooooooooooooooooooo############OOOOoooooooooooooooooooooooooooooooooooooooooooooooooooooooooooo    ",
"    XXXXoooooooooooooooooooooooooooooooooooooooo############OOOOoooooooooooooooooooooooooooooooooooooooooooooooooooooooooooo    ",
"    XXXXoooooooooooooooooooooooooooooooooooooooo############OOOOoooooooooooooooooooooooooooooooooooooooooooooooooooooooooooo    ",
"    XXXXoooooooooooooooooooooooooooooooooooooooo############OOOOoooooooooooooooooooooooooooooooooooooooooooooooooooooooooooo    ",
"    oooooooooooooooooooooooooooooooooooooooooooooooo################OOOO####ooooooooooooooooooooooooooooooooooooooooXXXXoooo    ",
"    oooooooooooooooooooooooooooooooooooooooooooooooo################OOOO####ooooooooooooooooooooooooooooooooooooooooXXXXoooo    ",
"    oooooooooooooooooooooooooooooooooooooooooooooooo################OOOO####ooooooooooooooooooooooooooooooooooooooooXXXXoooo    ",
"    oooooooooooooooooooooooooooooooooooooooooooooooo################OOOO####ooooooooooooooooooooooooooooooooooooooooXXXXoooo    ",
"    oooXoooooooooooooooooooooooooooooooooooooooooooooooo############$$$$OOOO########ooooooooooooooooooooooooooooooooXXXXoooo    ",
"    ooXXoooooooooooooooooooooooooooooooooooooooooooooooo############$$$$OOOO########ooooooooooooooooooooooooooooooooXXXXoooo    ",
"    oooooooooooooooooooooooooooooooooooooooooooooooooooo############$$$$OOOO########ooooooooooooooooooooooooooooooooXXXXoooo    ",
"    oooooooooooooooooooooooooooooooooooooooooooooooooooo############$$$$OOOO########ooooooooooooooooooooooooooooooooXXXXoooo    ",
"    ....oooooooooooooooooooooooooooooooooooooooooooooooooooo################OOOOOOOO####oooooooooooooooooooooooooooooooooooo    ",
"    ....oooooooooooooooooooooooooooooooooooooooooooooooooooo################OOOOOOOO####oooooooooooooooooooooooooooooooooooo    ",
"    ....oooooooooooooooooooooooooooooooooooooooooooooooooooo################OOOOOOOO####ooooooooooooooooooooooooooooXXoooooo    ",
"    ....oooooooooooooooooooooooooooooooooooooooooooooooooooo################OOOOOOOO####ooooooooooooooooooooooooooooXooooooo    ",
"    oooooooooooooooooooooooooooooooooooooooooooooooooooooooooooo############OOOO$$$$OOOO####oooooooooooooooooooooooo....oooo    ",
"    oooooooooooooooooooooooooooooooooooooooooooooooooooooooooooo############OOOO$$$$OOOO####oooooooooooooooooooooooo....oooo    ",
"    oooooooooooooooooooooooooooooooooooooooooooooooooooooooooooo############OOOO$$$$OOOO####oooooooooooooooooooooooo....oooo    ",
"    oooooooooooooooooooooooooooooooooooooooooooooooooooooooooooo############OOOO$$$$OOOO####oooooooooooooooooooooooo....oooo    ",
"    oXXXoooooooooooooooooooooooooooooooooooooooooooooooooooo++++################OOOO$$$$####++++++++oooooooooooooooooooooooo    ",
"    ooXXoooooooooooooooooooooooooooooooooooooooooooooooooooo++++################OOOO$$$$####++++++++oooooooooooooooooooooooo    ",
"    oooooooooooooooooooooooooooooooooooooooooooooooooooooooo++++################OOOO$$$$####++++++++oooooooooooooooooooooooo    ",
"    oooooooooooooooooooooooooooooooooooooooooooooooooooooooo++++################OOOO$$$$####++++++++oooooooooooooooooooooooo    ",
"    oooooooooooooooooooooooooooooooooooo++++++++++++++++++++@@@@++++############OOOOOOOO####@@@@++++++++++++++++oooo....oooo    ",
"    oooooooooooooooooooooooooooooooooooo++++++++++++++++++++@@@@++++############OOOOOOOO####@@@@++++++++++++++++oooo....oooo    ",
"    oooooooooooooooooooooooooooooooooooo++++++++++++++++++++@@@@++++############OOOOOOOO####@@@@++++++++++++++++oooo....oooo    ",
"    oooooooooooooooooooooooooooooooooooo++++++++++++++++++++@@@@++++############OOOOOOOO####@@@@++++++++++++++++oooo....oooo    ",
"    ........oooooooooooooooo++++++++++++++++@@@@@@@@@@@@@@@@@@@@@@@@################OOOO####@@@@@@@@@@@@@@@@@@@@++++oooooooo    ",
"    ........oooooooooooooooo++++++++++++++++@@@@@@@@@@@@@@@@@@@@@@@@################OOOO####@@@@@@@@@@@@@@@@@@@@++++oooooooo    ",
"    ........oooooooooooooooo++++++++++++++++@@@@@@@@@@@@@@@@@@@@@@@@################OOOO####@@@@@@@@@@@@@@@@@@@@++++oooooooo    ",
"    ........oooooooooooooooo++++++++++++++++@@@@@@@@@@@@@@@@@@@@@@@@################OOOO####@@@@@@@@@@@@@@@@@@@@++++oooooooo    ",
"    oooooooooooooooo++++++++++++@@@@@@@@@@@@@@@@@@@@@@@@@@@@@@@@################OOOO####@@@@@@@@@@@@@@@@@@@@@@@@++++oooooooo    ",
"    oooooooooooooooo++++++++++++@@@@@@@@@@@@@@@@@@@@@@@@@@@@@@@@################OOOO####@@@@@@@@@@@@@@@@@@@@@@@@++++oooooooo    ",
"    oooooooooooooooo++++++++++++@@@@@@@@@@@@@@@@@@@@@@@@@@@@@@@@################OOOO####@@@@@@@@@@@@@@@@@@@@@@@@++++oooooooo    ",
"    oooooooooooooooo++++++++++++@@@@@@@@@@@@@@@@@@@@@@@@@@@@@@@@################OOOO####@@@@@@@@@@@@@@@@@@@@@@@@++++oooooooo    ",
"    oooooooooooooooo++++@@@@@@@@@@@@@@@@@@@@@@@@@@@@@@@@@@@@####################OOOO####@@@@@@@@@@@@@@@@@@@@@@@@++++oooooooo    ",
"    oooooooooooooooo++++@@@@@@@@@@@@@@@@@@@@@@@@@@@@@@@@@@@@####################OOOO####@@@@@@@@@@@@@@@@@@@@@@@@++++oooooooo    ",
"    oooooooooooooooo++++@@@@@@@@@@@@@@@@@@@@@@@@@@@@@@@@@@@@####################OOOO####@@@@@@@@@@@@@@@@@@@@@@@@++++oooooooo    ",
"    oooooooooooooooo++++@@@@@@@@@@@@@@@@@@@@@@@@@@@@@@@@@@@@####################OOOO####@@@@@@@@@@@@@@@@@@@@@@@@++++oooooooo    ",
"    oooooooXoooo++++@@@@@@@@@@@@@@@@@@@@@@@@@@@@@@@@@@@@########################OOOO####@@@@@@@@@@@@@@@@@@@@++++++++oooooooo....",
"    ooooooXXoooo++++@@@@@@@@@@@@@@@@@@@@@@@@@@@@@@@@@@@@########################OOOO####@@@@@@@@@@@@@@@@@@@@++++++++oooooooo....",
"    oooooooooooo++++@@@@@@@@@@@@@@@@@@@@@@@@@@@@@@@@@@@@########################OOOO####@@@@@@@@@@@@@@@@@@@@++++++++oooooooo....",
"    oooooooooooo++++@@@@@@@@@@@@@@@@@@@@@@@@@@@@@@@@@@@@########################OOOO####@@@@@@@@@@@@@@@@@@@@++++++++oooooooo....",
"    oooooooooooo++++++++@@@@@@@@@@@@@@@@@@@@@@@@@@@@@@@@####################OOOO####@@@@@@@@@@@@@@@@++++++++++++oooooooooooo    ",
"    oooooooooooo++++++++@@@@@@@@@@@@@@@@@@@@@@@@@@@@@@@@####################OOOO####@@@@@@@@@@@@@@@@++++++++++++oooooooooooo    ",
"    oooooooooooo++++++++@@@@@@@@@@@@@@@@@@@@@@@@@@@@@@@@####################OOOO####@@@@@@@@@@@@@@@@++++++++++++oooooooooooo    ",
"    oooooooooooo++++++++@@@@@@@@@@@@@@@@@@@@@@@@@@@@@@@@####################OOOO####@@@@@@@@@@@@@@@@++++++++++++oooooooooooo    ",
"    oooooooooooooooo++++++++++++++++++++++++@@@@@@@@@@@@@@@@########@@@@@@@@@@@@@@@@@@@@@@@@@@@@@@@@++++++++ooooooooXXXXoooo    ",
"    oooooooooooooooo++++++++++++++++++++++++@@@@@@@@@@@@@@@@########@@@@@@@@@@@@@@@@@@@@@@@@@@@@@@@@++++++++ooooooooXXXXoooo    ",
"    oooooooooooooooo++++++++++++++++++++++++@@@@@@@@@@@@@@@@########@@@@@@@@@@@@@@@@@@@@@@@@@@@@@@@@++++++++ooooooooXXXXoooo    ",
"    oooooooooooooooo++++++++++++++++++++++++@@@@@@@@@@@@@@@@########@@@@@@@@@@@@@@@@@@@@@@@@@@@@@@@@++++++++ooooooooXXXXoooo    ",
"    oooooooooooooooooooooooooooooooooooo++++++++++++++++++++++++++++++++++++++++++++++++++++++++++++++++oooooooooooooooooooo    ",
"    oooooooooooooooooooooooooooooooooooo++++++++++++++++++++++++++++++++++++++++++++++++++++++++++++++++oooooooooooooooooooo    ",
"    oooooooooooooooooooooooooooooooooooo++++++++++++++++++++++++++++++++++++++++++++++++++++++++++++++++oooooooooooooooooooo    ",
"    oooooooooooooooooooooooooooooooooooo++++++++++++++++++++++++++++++++++++++++++++++++++++++++++++++++oooooooooooooooooooo    ",
"    oooooooooooooooooooooooooooooooooooooooooooooooooooooooooooooooooooooooooooooooooooooooooooooooooooooooooooooooooooooooo....",
"    oooooooooooooooooooooooooooooooooooooooooooooooooooooooooooooooooooooooooooooooooooooooooooooooooooooooooooooooooooooooo....",
"    oooooooooooooooooooooooooooooooooooooooooooooooooooooooooooooooooooooooooooooooooooooooooooooooooooooooooooooooooooooooo....",
"    oooooooooooooooooooooooooooooooooooooooooooooooooooooooooooooooooooooooooooooooooooooooooooooooooooooooooooooooooooooooo....",
"    oooooooooooooooooooooooooooooooooooooooooooooooooooooooooooooooooooo....oooooooooooo........oooooooooooooooooooooooooooo    ",
"    oooooooooooooooooooooooooooooooooooooooooooooooooooooooooooooooooooo....oooooooooooo........oooooooooooooooooooooooooooo    ",
"    ooooooooooooooooooooooooooooooooooooooooooooooooooooooooooooooooXXoo....oooooooooooo........oooooooooooooooooooooooooooo    ",
"    ooooooooooooooooooooooooooooooooooooooooooooooooooooooooooooooooXooo....oooooooooooo........oooooooooooooooooooooooooooo    ",
"    oooooooo........oooooooooooooooooooooooo....ooooooooXXXXoooooooo....oooo....ooooooooooooXXXXoooo....oooo....oooo....oooo    ",
"    oooooooo........oooooooooooooooooooooooo....ooooooooXXXXoooooooo....oooo....ooooooooooooXXXXoooo....oooo....oooo....oooo    ",
"    oooooooo........ooooooooooooooooooooXXoo....ooooooooXXXXoooooooo....oooo....ooooooooooooXXXXoooo....oooo....oooo....oooo    ",
"    oooooooo........ooooooooooooooooooooXXoo....ooooooooXXXXoooooooo....oooo....ooooooooooooXXXXoooo....oooo....oooo....oooo    ",
"    oooo....ooooooooooooooooXXXXooooooooooXXooooXXXXooooXXXXXXXX....ooooooooooooXXXX............oooooooooooooooo........oooo    ",
"    oooo....ooooooooooooooooXoXXooooooooooXXooooXXXXooooXXXXXXXX....ooooooooooooXXXX............oooooooooooooooo........oooo    ",
"    oooo....ooooooooooooooooooooooooooooooooooooXXXXooooXXXXXXXX....ooooooooooooXXXX............oooooooooooooooo........oooo    ",
"    oooo....ooooooooooooooooooooooooooooooooooooXXXXooooXXXXXXXX....ooooooooooooXXXX............oooooooooooooooo........oooo    ",
"    ....oooooooooooooooooooooooooooooooooooooooo....XXXXoooooooooooooooooooooooooooooooooooo....oooooooooooooooooooooooooooo    ",
"    ....oooooooooooooooooooooooooooooooooooooooo....XXXXoooooooooooooooooooooooooooooooooooo....oooooooooooooooooooooooooooo    ",
"    ....oooooooooooooooooooooooooooooooooooooooo....XXXXoooooooooooooooooooooooooooooooooooo....oooooooooooooooooooooooooooo    ",
"    ....oooooooooooooooooooooooooooooooooooooooo....XXXXoooooooooooooooooooooooooooooooooooo....oooooooooooooooooooooooooooo    ",
"    oooooooooooooooooooooooooooooooo....oooooooooooooooooooooooooooooooooooooooooooooooo........oooooooooooooooooooooooooooo    ",
"    oooooooooooooooooooooooooooooooo....oooooooooooooooooooooooooooooooooooooooooooooooo........oooooooooooooooooooooooooooo    ",
"    oooooooooooooooooooooooooooooooo....oooooooooooooooooooooooooooooooooooooooooooooooo........oooooooooooooooooooooooooooo    ",
"    oooooooooooooooooooooooooooooooo....oooooooooooooooooooooooooooooooooooooooooooooooo........oooooooooooooooooooooooooooo    ",
"    oooooooooooo....ooooooooooooooooooooooooooooooooooooooooooooXXXXoooooooooooooooooooooooooooooooooooooooooooooooooooooooo    ",
"    oooooooooooo....ooooooooooooooooooooooooooooooooooooooooooooXXXXoooooooooooooooooooooooooooooooooooooooooooooooooooooooo    ",
"    oooooooooooo....ooooooooooooooooooooooooooooooooooooooooooooXXXXoooooooooooooooooooooooooooooooooooooooooooooooooooooooo    ",
"    oooooooooooo....ooooooooooooooooooooooooooooooooooooooooooooXXXXoooooooooooooooooooooooooooooooooooooooooooooooooooooooo    ",
"    oooooooooooooooooooo....oooooooooooo....oooooooooooooooooooooooo....oooooooooooooooo........oooooooooooooooooooooooooooo    ",
"    oooooooooooooooooooo....oooooooooooo....oooooooooooooooooooooooo....oooooooooooooooo........oooooooooooooooooooooooooooo    ",
"    oooooooooooooooooooo....oooooooooooo....oooooooooooooooooooooooo....oooooooooooooooo........oooooooooooooooooooooooooooo    ",
"    oooooooooooooooooooo....oooooooooooo....oooooooooooooooooooooooo....oooooooooooooooo........oooooooooooooooooooooooooooo    ",
"    oooooooooooooooooooooooooooooooooooooooooooooooo....oooooooooooooooooooooooooooo....oooooooo....oooo....oooooooooooooooo    ",
"    oooooooooooooooooooooooooooooooooooooooooooooooo....oooooooooooooooooooooooooooo....oooooooo....oooo....oooooooooooooooo    ",
"    oooooooooooooooooooooooooooooooooooooooooooooooo....oooooooooooooooooooooooooooo....oooooooo....oooo....oooooooooooooooo    ",
"    oooooooooooooooooooooooooooooooooooooooooooooooo....oooooooooooooooooooooooooooo....oooooooo....oooo....oooooooooooooooo    ",
"    oooooooooooo....oooooooooooooooooooo....oooo....oooooooooooo....oooooooooooooooooooooooooooooooooooooooooooooooooooooooo....",
"    oooooooooooo....oooooooooooooooooooo....oooo....oooooooooooo....oooooooooooooooooooooooooooooooooooooooooooooooooooooooo....",
"    oooooooooooo....oooooooooooooooooooo....oooo....oooooooooooo....oooooooooooooooooooooooooooooooooooooooooooooooooooooooo....",
"    oooooooooooo....oooooooooooooooooooo....oooo....oooooooooooo....oooooooooooooooooooooooooooooooooooooooooooooooooooooooo....",
"                                                ....                                                                            ",
"                                                ....                                                                            ",
"                                                ....                                                                            ",
"                                                ....                                                                            "
};
